<svg xmlns="http://www.w3.org/2000/svg" xmlns:xlink="http://www.w3.org/1999/xlink" xmlns:inkscape="http://www.inkscape.org/namespaces/inkscape" version="1.1" width="612.288" height="810.708" viewBox="0 0 612.288 810.708">
<defs>
<clipPath id="clip_1">
<path transform="matrix(1,0,0,-1,0,810.708)" d="M0 810.708H612.288V0H0Z"/>
</clipPath>
</defs>
<g inkscape:groupmode="layer" inkscape:label="Layer 1">
<g clip-path="url(#clip_1)">
<path transform="matrix(1,0,0,-1,179.2424,449.5646)" d="M0 0C0-8.806 2.889-13.983 14.131-13.983 21.44-13.983 31.464-13.074 40.274-11.556L43.476-31.464C33.452-33.596 24.329-34.649 14.131-34.649-11.39-34.649-22.801-22.036-22.801-3.642V38.608C-22.801 56.989-11.39 69.61 14.131 69.61 24.329 69.61 33.452 68.553 43.476 66.426L40.274 46.517C31.464 48.022 21.44 48.949 14.131 48.949 2.889 48.949 0 43.767 0 34.953Z" fill="#24428f"/>
<path transform="matrix(1,0,0,-1,0,810.708)" d="M240.021 429.231H262.819V328.004H240.021Z" fill="#24428f"/>
<path transform="matrix(1,0,0,-1,303.2796,449.5646)" d="M0 0C0-8.806 2.893-13.983 14.139-13.983 21.462-13.983 31.464-13.074 40.283-11.556L43.485-31.464C33.439-33.596 24.329-34.649 14.139-34.649-11.381-34.649-22.806-22.036-22.806-3.642V38.608C-22.806 56.989-11.381 69.61 14.139 69.61 24.329 69.61 33.439 68.553 43.485 66.426L40.283 46.517C31.464 48.022 21.462 48.949 14.139 48.949 2.893 48.949 0 43.767 0 34.953Z" fill="#24428f"/>
<path transform="matrix(1,0,0,-1,0,810.708)" d="M380.895 328H384.323V429.227H380.895Z" fill="#808386"/>
<path transform="matrix(1,0,0,-1,155.5401,322.84333)" d="M0 0-24.86 11.042V39.435H-15.545V17.098L3.781 8.519Z" fill="#63bc47"/>
<path transform="matrix(1,0,0,-1,153.4083,366.0802)" d="M0 0-57.081 30.533-114.692 .335-119.016 8.588-57.037 41.079 4.403 8.214Z" fill="#24428f"/>
<path transform="matrix(1,0,0,-1,136.2666,379.5064)" d="M0 0-39.965 22.167-79.756 .931-84.142 9.158-39.878 32.774 4.525 8.149Z" fill="#15a24b"/>
<path transform="matrix(1,0,0,-1,118.5768,391.8577)" d="M0 0-22.414 13.317-44.585 2.088-48.792 10.411-22.049 23.946 4.76 8.014Z" fill="#63bc47"/>
<path transform="matrix(1,0,0,-1,0,810.708)" d="M100.992 480.429H91.681V548.151H100.992Z" fill="#24428f"/>
<path transform="matrix(1,0,0,-1,154.6005,343.57853)" d="M0 0-42.967 21.566V72.595H-33.648V27.309L4.185 8.331Z" fill="#15a24b"/>
<path transform="matrix(1,0,0,-1,37.6808,343.57853)" d="M0 0-4.185 8.331 33.639 27.309V72.595H42.958V21.566Z" fill="#15a24b"/>
<path transform="matrix(1,0,0,-1,36.7193,322.84333)" d="M0 0-3.781 8.519 15.545 17.098V39.435H24.864V11.042Z" fill="#63bc47"/>
<path transform="matrix(1,0,0,-1,0,810.708)" d="M386.482 328.013H381.274V429.087H386.482Z" fill="#808386"/>
<path transform="matrix(1,0,0,-1,409.0836,400.587)" d="M0 0H3.404V-24.118H14.609V-27.016H0Z" fill="#808386"/>
<path transform="matrix(1,0,0,-1,409.0836,400.587)" stroke-width=".265" stroke-linecap="butt" stroke-miterlimit="4" stroke-linejoin="miter" fill="none" stroke="#808386" d="M0 0H3.404V-24.118H14.609V-27.016H0V0Z"/>
<path transform="matrix(1,0,0,-1,0,810.708)" d="M427.938 402.507H431.34V383.106H427.938ZM429.57 406.111C428.912 406.111 428.406 406.35 428.052 406.829 427.633 407.254 427.424 407.772 427.424 408.383 427.424 409.039 427.633 409.573 428.052 409.97 428.431 410.399 428.962 410.612 429.646 410.612 430.316 410.612 430.847 410.399 431.241 409.97 431.62 409.573 431.811 409.039 431.811 408.383 431.811 407.772 431.62 407.254 431.241 406.829 430.847 406.35 430.305 406.111 429.607 406.111Z" fill="#808386"/>
<path transform="matrix(1,0,0,-1,0,810.708)" stroke-width=".265" stroke-linecap="butt" stroke-miterlimit="4" stroke-linejoin="miter" fill="none" stroke="#808386" d="M427.938 402.507H431.34V383.106H427.938ZM429.57 406.111C428.912 406.111 428.406 406.35 428.052 406.829 427.633 407.254 427.424 407.772 427.424 408.383 427.424 409.039 427.633 409.573 428.052 409.97 428.431 410.399 428.962 410.612 429.646 410.612 430.316 410.612 430.847 410.399 431.241 409.97 431.62 409.573 431.811 409.039 431.811 408.383 431.811 407.772 431.62 407.254 431.241 406.829 430.847 406.35 430.305 406.111 429.607 406.111H429.57Z"/>
<path transform="matrix(1,0,0,-1,438.624,408.20143)" d="M0 0 3.695-10.867C4.313-12.629 4.819-14.298 5.21-15.878H5.324C5.754-14.298 6.284-12.629 6.915-10.867L10.555 0H14.136L6.745-19.401H3.487L-3.639 0Z" fill="#808386"/>
<path transform="matrix(1,0,0,-1,438.624,408.20143)" stroke-width=".265" stroke-linecap="butt" stroke-miterlimit="4" stroke-linejoin="miter" fill="none" stroke="#808386" d="M0 0 3.695-10.867C4.313-12.629 4.819-14.298 5.21-15.878H5.324C5.754-14.298 6.284-12.629 6.915-10.867L10.555 0H14.136L6.745-19.401H3.487L-3.639 0H0Z"/>
<path transform="matrix(1,0,0,-1,468.5218,415.99363)" d="M0 0C.079 1.236-.22 2.484-.894 3.747-1.236 4.338-1.719 4.825-2.339 5.208-2.961 5.586-3.755 5.779-4.719 5.779-6.456 5.725-7.725 5.072-8.524 3.825-8.941 3.261-9.266 2.642-9.494 1.97-9.608 1.657-9.704 1.333-9.78 1.004-9.855 .676-9.919 .34-9.969 0ZM-10.008-2.503C-9.907-4.86-9.249-6.575-8.032-7.649-6.803-8.723-5.322-9.26-3.585-9.26-2.965-9.26-2.395-9.222-1.876-9.144-1.356-9.09-.889-9.025-.469-8.947 .328-8.75 1.024-8.534 1.621-8.298L2.246-10.778C1.679-11.076 .862-11.339-.201-11.574-1.238-11.833-2.523-11.976-4.053-11.999-6.95-11.976-9.2-11.068-10.807-9.28-12.465-7.518-13.293-5.169-13.293-2.233-13.293 .823-12.49 3.322-10.885 5.266-9.33 7.251-7.18 8.256-4.435 8.283-2.88 8.283-1.615 7.989-.641 7.402 .371 6.788 1.161 6.011 1.731 5.072 2.299 4.134 2.716 3.152 2.982 2.136 3.185 1.066 3.286 .066 3.286-.858 3.286-1.576 3.247-2.136 3.172-2.542Z" fill="#808386"/>
<path transform="matrix(1,0,0,-1,468.5218,415.99363)" stroke-width=".265" stroke-linecap="butt" stroke-miterlimit="4" stroke-linejoin="miter" fill="none" stroke="#808386" d="M0 0C.079 1.236-.22 2.484-.894 3.747-1.236 4.338-1.719 4.825-2.339 5.208-2.961 5.586-3.755 5.779-4.719 5.779-6.456 5.725-7.725 5.072-8.524 3.825-8.941 3.261-9.266 2.642-9.494 1.97-9.608 1.657-9.704 1.333-9.78 1.004-9.855 .676-9.919 .34-9.969 0H0ZM-10.008-2.503C-9.907-4.86-9.249-6.575-8.032-7.649-6.803-8.723-5.322-9.26-3.585-9.26-2.965-9.26-2.395-9.222-1.876-9.144-1.356-9.09-.889-9.025-.469-8.947 .328-8.75 1.024-8.534 1.621-8.298L2.246-10.778C1.679-11.076 .862-11.339-.201-11.574-1.238-11.833-2.523-11.976-4.053-11.999-6.95-11.976-9.2-11.068-10.807-9.28-12.465-7.518-13.293-5.169-13.293-2.233-13.293 .823-12.49 3.322-10.885 5.266-9.33 7.251-7.18 8.256-4.435 8.283-2.88 8.283-1.615 7.989-.641 7.402 .371 6.788 1.161 6.011 1.731 5.072 2.299 4.134 2.716 3.152 2.982 2.136 3.185 1.066 3.286 .066 3.286-.858 3.286-1.576 3.247-2.136 3.172-2.542L-10.008-2.503Z"/>
<path transform="matrix(1,0,0,-1,476.2058,424.07563)" d="M0 0C.545-.313 1.229-.61 2.053-.885 2.865-1.198 3.701-1.356 4.562-1.356 5.805-1.356 6.722-1.074 7.319-.514 7.889 .023 8.175 .703 8.175 1.53 8.175 2.364 7.914 3.068 7.394 3.628 6.85 4.165 5.957 4.655 4.715 5.1 1.331 6.421-.342 8.26-.303 10.616-.303 12.223 .278 13.579 1.443 14.677 2.608 15.751 4.188 16.299 6.187 16.326 8.148 16.299 9.674 15.897 10.761 15.117L9.944 12.602C9.614 12.876 9.106 13.131 8.422 13.371 7.775 13.591 6.994 13.715 6.083 13.742 5.08 13.742 4.319 13.487 3.799 12.977 3.255 12.467 2.982 11.833 2.982 11.076 2.982 10.307 3.268 9.678 3.838 9.195 4.433 8.685 5.327 8.202 6.517 7.746 9.788 6.645 11.435 4.694 11.46 1.885 11.46 .147 10.854-1.259 9.641-2.329 8.428-3.388 6.703-3.937 4.466-3.979 2.343-3.94 .587-3.488-.804-2.627Z" fill="#808386"/>
<path transform="matrix(1,0,0,-1,476.2058,424.07563)" stroke-width=".265" stroke-linecap="butt" stroke-miterlimit="4" stroke-linejoin="miter" fill="none" stroke="#808386" d="M0 0C.545-.313 1.229-.61 2.053-.885 2.865-1.198 3.701-1.356 4.562-1.356 5.805-1.356 6.722-1.074 7.319-.514 7.889 .023 8.175 .703 8.175 1.53 8.175 2.364 7.914 3.068 7.394 3.628 6.85 4.165 5.957 4.655 4.715 5.1 1.331 6.421-.342 8.26-.303 10.616-.303 12.223 .278 13.579 1.443 14.677 2.608 15.751 4.188 16.299 6.187 16.326 8.148 16.299 9.674 15.897 10.761 15.117L9.944 12.602C9.614 12.876 9.106 13.131 8.422 13.371 7.775 13.591 6.994 13.715 6.083 13.742 5.08 13.742 4.319 13.487 3.799 12.977 3.255 12.467 2.982 11.833 2.982 11.076 2.982 10.307 3.268 9.678 3.838 9.195 4.433 8.685 5.327 8.202 6.517 7.746 9.788 6.645 11.435 4.694 11.46 1.885 11.46 .147 10.854-1.259 9.641-2.329 8.428-3.388 6.703-3.937 4.466-3.979 2.343-3.94 .587-3.488-.804-2.627L0 0Z"/>
<path transform="matrix(1,0,0,-1,496.6714,403.5423)" d="M0 0V-4.659H4.906V-7.321H0V-17.841C-.066-20.329 .79-21.588 2.567-21.615 3.442-21.615 4.103-21.538 4.547-21.379L4.698-24.026C4.029-24.312 3.027-24.474 1.69-24.512 .087-24.47-1.142-23.975-1.999-23.021-2.909-21.924-3.351-20.224-3.324-17.926V-7.321H-6.245V-4.659H-3.324V-1.097Z" fill="#808386"/>
<path transform="matrix(1,0,0,-1,496.6714,403.5423)" stroke-width=".265" stroke-linecap="butt" stroke-miterlimit="4" stroke-linejoin="miter" fill="none" stroke="#808386" d="M0 0V-4.659H4.906V-7.321H0V-17.841C-.066-20.329 .79-21.588 2.567-21.615 3.442-21.615 4.103-21.538 4.547-21.379L4.698-24.026C4.029-24.312 3.027-24.474 1.69-24.512 .087-24.47-1.142-23.975-1.999-23.021-2.909-21.924-3.351-20.224-3.324-17.926V-7.321H-6.245V-4.659H-3.324V-1.097L0 0Z"/>
<path transform="matrix(1,0,0,-1,513.5905,425.4316)" d="M0 0C1.657 .027 3.033 .746 4.122 2.164 5.159 3.539 5.693 5.354 5.718 7.607 5.718 9.376 5.293 11.041 4.445 12.602 3.558 14.174 2.102 14.993 .075 15.059-1.887 14.993-3.338 14.201-4.275 12.679-5.212 11.146-5.681 9.419-5.681 7.491-5.681 5.316-5.15 3.539-4.085 2.164-3.046 .746-1.698 .027-.039 0ZM-.114-2.623C-2.706-2.581-4.831-1.669-6.486 .12-8.219 1.881-9.098 4.296-9.123 7.363-9.098 10.651-8.18 13.189-6.372 14.978-4.64 16.782-2.453 17.682 .189 17.682 2.934 17.655 5.121 16.74 6.753 14.939 8.385 13.151 9.212 10.751 9.239 7.734 9.189 4.145 8.207 1.522 6.297-.135 4.4-1.793 2.275-2.623-.077-2.623Z" fill="#808386"/>
<path transform="matrix(1,0,0,-1,513.5905,425.4316)" stroke-width=".265" stroke-linecap="butt" stroke-miterlimit="4" stroke-linejoin="miter" fill="none" stroke="#808386" d="M0 0C1.657 .027 3.033 .746 4.122 2.164 5.159 3.539 5.693 5.354 5.718 7.607 5.718 9.376 5.293 11.041 4.445 12.602 3.558 14.174 2.102 14.993 .075 15.059-1.887 14.993-3.338 14.201-4.275 12.679-5.212 11.146-5.681 9.419-5.681 7.491-5.681 5.316-5.15 3.539-4.085 2.164-3.046 .746-1.698 .027-.039 0H0ZM-.114-2.623C-2.706-2.581-4.831-1.669-6.486 .12-8.219 1.881-9.098 4.296-9.123 7.363-9.098 10.651-8.18 13.189-6.372 14.978-4.64 16.782-2.453 17.682 .189 17.682 2.934 17.655 5.121 16.74 6.753 14.939 8.385 13.151 9.212 10.751 9.239 7.734 9.189 4.145 8.207 1.522 6.297-.135 4.4-1.793 2.275-2.623-.077-2.623H-.114Z"/>
<path transform="matrix(1,0,0,-1,541.2225,426.93443)" d="M0 0C-.444-.216-1.132-.444-2.071-.676-2.523-.776-3.025-.869-3.566-.947-4.11-1.024-4.725-1.082-5.409-1.12-8.275-1.078-10.535-.154-12.193 1.661-13.869 3.423-14.723 5.81-14.75 8.828-14.723 11.907-13.807 14.395-11.999 16.288-10.207 18.192-7.761 19.158-4.663 19.185-2.542 19.131-.962 18.783 .073 18.138L-.703 15.48C-1.093 15.754-1.615 15.971-2.26 16.129-2.928 16.315-3.732 16.407-4.667 16.407-6.819 16.38-8.461 15.669-9.6 14.279-10.736 12.849-11.308 11.091-11.308 9.001-11.281 6.707-10.663 4.926-9.449 3.666-8.221 2.357-6.664 1.7-4.783 1.7-3.821 1.7-2.994 1.804-2.295 2.013-1.599 2.21-1.031 2.415-.591 2.623Z" fill="#808386"/>
<path transform="matrix(1,0,0,-1,541.2225,426.93443)" stroke-width=".265" stroke-linecap="butt" stroke-miterlimit="4" stroke-linejoin="miter" fill="none" stroke="#808386" d="M0 0C-.444-.216-1.132-.444-2.071-.676-2.523-.776-3.025-.869-3.566-.947-4.11-1.024-4.725-1.082-5.409-1.12-8.275-1.078-10.535-.154-12.193 1.661-13.869 3.423-14.723 5.81-14.75 8.828-14.723 11.907-13.807 14.395-11.999 16.288-10.207 18.192-7.761 19.158-4.663 19.185-2.542 19.131-.962 18.783 .073 18.138L-.703 15.48C-1.093 15.754-1.615 15.971-2.26 16.129-2.928 16.315-3.732 16.407-4.667 16.407-6.819 16.38-8.461 15.669-9.6 14.279-10.736 12.849-11.308 11.091-11.308 9.001-11.281 6.707-10.663 4.926-9.449 3.666-8.221 2.357-6.664 1.7-4.783 1.7-3.821 1.7-2.994 1.804-2.295 2.013-1.599 2.21-1.031 2.415-.591 2.623L0 0Z"/>
<path transform="matrix(1,0,0,-1,549.2001,417.0869)" d="M0 0H.089C.61 .746 1.151 1.48 1.723 2.198L7.282 8.885H11.358L4.095 .919 12.366-10.516H8.206L1.746-1.178 0-3.214V-10.516H-3.404V17.949H0Z" fill="#808386"/>
<path transform="matrix(1,0,0,-1,549.2001,417.0869)" stroke-width=".265" stroke-linecap="butt" stroke-miterlimit="4" stroke-linejoin="miter" fill="none" stroke="#808386" d="M0 0H.089C.61 .746 1.151 1.48 1.723 2.198L7.282 8.885H11.358L4.095 .919 12.366-10.516H8.206L1.746-1.178 0-3.214V-10.516H-3.404V17.949H0V0Z"/>
<path transform="matrix(1,0,0,-1,409.101,460.5215)" d="M0 0C1.607-1.155 3.62-1.742 6.036-1.769 9.631-1.692 11.455-.155 11.505 2.84 11.505 4.08 11.132 5.126 10.385 5.976 9.625 6.815 8.354 7.553 6.57 8.194 4.418 8.99 2.735 10.002 1.52 11.23 .28 12.474-.34 14.031-.34 15.901-.34 18.068 .45 19.834 2.03 21.194 3.523 22.542 5.553 23.226 8.121 23.253 10.788 23.203 12.704 22.762 13.867 21.932L12.938 19.119C12.544 19.409 11.938 19.703 11.115 20.004 10.253 20.267 9.216 20.398 8.001 20.398 6.241 20.371 4.98 19.946 4.221 19.123 3.423 18.258 3.036 17.338 3.064 16.357 3.064 15.14 3.487 14.147 4.335 13.375 5.194 12.579 6.506 11.825 8.264 11.122 10.491 10.272 12.162 9.233 13.276 8.005 14.364 6.761 14.908 5.154 14.908 3.179 14.908 1.035 14.174-.788 12.708-2.291 11.205-3.809 8.899-4.601 5.791-4.667 2.998-4.601 .773-4.014-.881-2.909Z" fill="#808386"/>
<path transform="matrix(1,0,0,-1,409.101,460.5215)" stroke-width=".265" stroke-linecap="butt" stroke-miterlimit="4" stroke-linejoin="miter" fill="none" stroke="#808386" d="M0 0C1.607-1.155 3.62-1.742 6.036-1.769 9.631-1.692 11.455-.155 11.505 2.84 11.505 4.08 11.132 5.126 10.385 5.976 9.625 6.815 8.354 7.553 6.57 8.194 4.418 8.99 2.735 10.002 1.52 11.23 .28 12.474-.34 14.031-.34 15.901-.34 18.068 .45 19.834 2.03 21.194 3.523 22.542 5.553 23.226 8.121 23.253 10.788 23.203 12.704 22.762 13.867 21.932L12.938 19.119C12.544 19.409 11.938 19.703 11.115 20.004 10.253 20.267 9.216 20.398 8.001 20.398 6.241 20.371 4.98 19.946 4.221 19.123 3.423 18.258 3.036 17.338 3.064 16.357 3.064 15.14 3.487 14.147 4.335 13.375 5.194 12.579 6.506 11.825 8.264 11.122 10.491 10.272 12.162 9.233 13.276 8.005 14.364 6.761 14.908 5.154 14.908 3.179 14.908 1.035 14.174-.788 12.708-2.291 11.205-3.809 8.899-4.601 5.791-4.667 2.998-4.601 .773-4.014-.881-2.909L0 0Z"/>
<path transform="matrix(1,0,0,-1,436.9532,462.56523)" d="M0 0C1.657 .027 3.033 .746 4.122 2.163 5.159 3.539 5.693 5.355 5.718 7.607 5.718 9.376 5.293 11.041 4.445 12.602 3.558 14.174 2.102 14.993 .075 15.059-1.887 14.993-3.338 14.201-4.275 12.679-5.212 11.146-5.681 9.419-5.681 7.491-5.681 5.316-5.15 3.539-4.085 2.163-3.046 .746-1.698 .027-.039 0ZM-.114-2.623C-2.706-2.581-4.831-1.669-6.486 .12-8.219 1.881-9.098 4.296-9.123 7.363-9.098 10.651-8.181 13.189-6.372 14.978-4.64 16.782-2.453 17.682 .189 17.682 2.934 17.655 5.121 16.74 6.753 14.939 8.383 13.151 9.212 10.751 9.237 7.734 9.187 4.145 8.207 1.522 6.297-.135 4.4-1.792 2.275-2.623-.077-2.623Z" fill="#808386"/>
<path transform="matrix(1,0,0,-1,436.9532,462.56523)" stroke-width=".265" stroke-linecap="butt" stroke-miterlimit="4" stroke-linejoin="miter" fill="none" stroke="#808386" d="M0 0C1.657 .027 3.033 .746 4.122 2.163 5.159 3.539 5.693 5.355 5.718 7.607 5.718 9.376 5.293 11.041 4.445 12.602 3.558 14.174 2.102 14.993 .075 15.059-1.887 14.993-3.338 14.201-4.275 12.679-5.212 11.146-5.681 9.419-5.681 7.491-5.681 5.316-5.15 3.539-4.085 2.163-3.046 .746-1.698 .027-.039 0H0ZM-.114-2.623C-2.706-2.581-4.831-1.669-6.486 .12-8.219 1.881-9.098 4.296-9.123 7.363-9.098 10.651-8.181 13.189-6.372 14.978-4.64 16.782-2.453 17.682 .189 17.682 2.934 17.655 5.121 16.74 6.753 14.939 8.383 13.151 9.212 10.751 9.237 7.734 9.187 4.145 8.207 1.522 6.297-.135 4.4-1.792 2.275-2.623-.077-2.623H-.114Z"/>
<path transform="matrix(1,0,0,-1,0,810.708)" d="M451.207 374.436H454.609V345.97203H451.207Z" fill="#808386"/>
<path transform="matrix(1,0,0,-1,0,810.708)" stroke-width=".265" stroke-linecap="butt" stroke-miterlimit="4" stroke-linejoin="miter" fill="none" stroke="#808386" d="M451.207 374.436H454.609V345.97203H451.207Z"/>
<path transform="matrix(1,0,0,-1,476.3005,459.4591)" d="M0 0C0-1.993 .056-3.755 .166-5.277H-2.868L-3.058-2.121H-3.133C-3.55-2.928-4.265-3.713-5.275-4.481-6.311-5.273-7.671-5.687-9.351-5.729-10.072-5.729-10.804-5.59-11.549-5.316-12.308-5.057-13.01-4.613-13.655-3.987-14.273-3.346-14.792-2.465-15.208-1.341-15.625-.271-15.834 1.105-15.834 2.789V14.124H-12.432V3.388C-12.432 1.518-12.107 .035-11.462-1.066-10.815-2.245-9.737-2.832-8.231-2.832-7.064-2.805-6.094-2.461-5.322-1.793-4.563-1.151-4.029-.413-3.724 .425-3.51 .935-3.402 1.538-3.402 2.233V14.124H0Z" fill="#808386"/>
<path transform="matrix(1,0,0,-1,476.3005,459.4591)" stroke-width=".265" stroke-linecap="butt" stroke-miterlimit="4" stroke-linejoin="miter" fill="none" stroke="#808386" d="M0 0C0-1.993 .056-3.755 .166-5.277H-2.868L-3.058-2.121H-3.133C-3.55-2.928-4.265-3.713-5.275-4.481-6.311-5.273-7.671-5.687-9.351-5.729-10.072-5.729-10.804-5.59-11.549-5.316-12.308-5.057-13.01-4.613-13.655-3.987-14.273-3.346-14.792-2.465-15.208-1.341-15.625-.271-15.834 1.105-15.834 2.789V14.124H-12.432V3.388C-12.432 1.518-12.107 .035-11.462-1.066-10.815-2.245-9.737-2.832-8.231-2.832-7.064-2.805-6.094-2.461-5.322-1.793-4.563-1.151-4.029-.413-3.724 .425-3.51 .935-3.402 1.538-3.402 2.233V14.124H0V0Z"/>
<path transform="matrix(1,0,0,-1,486.7757,440.676)" d="M0 0V-4.659H4.906V-7.321H0V-17.841C-.066-20.328 .79-21.588 2.567-21.615 3.442-21.615 4.103-21.538 4.547-21.379L4.698-24.026C4.029-24.312 3.027-24.474 1.69-24.512 .087-24.47-1.142-23.975-1.999-23.021-2.909-21.924-3.351-20.224-3.324-17.926V-7.321H-6.245V-4.659H-3.324V-1.097Z" fill="#808386"/>
<path transform="matrix(1,0,0,-1,486.7757,440.676)" stroke-width=".265" stroke-linecap="butt" stroke-miterlimit="4" stroke-linejoin="miter" fill="none" stroke="#808386" d="M0 0V-4.659H4.906V-7.321H0V-17.841C-.066-20.328 .79-21.588 2.567-21.615 3.442-21.615 4.103-21.538 4.547-21.379L4.698-24.026C4.029-24.312 3.027-24.474 1.69-24.512 .087-24.47-1.142-23.975-1.999-23.021-2.909-21.924-3.351-20.224-3.324-17.926V-7.321H-6.245V-4.659H-3.324V-1.097L0 0Z"/>
<path transform="matrix(1,0,0,-1,0,810.708)" d="M495.943 365.373H499.345V345.972H495.943ZM497.575 368.977C496.917 368.977 496.411 369.217 496.057 369.696 495.638 370.121 495.429 370.639 495.429 371.249 495.429 371.906 495.638 372.439 496.057 372.837 496.436 373.266 496.967 373.478 497.651 373.478 498.321 373.478 498.852 373.266 499.246 372.837 499.625 372.439 499.816 371.906 499.816 371.249 499.816 370.639 499.625 370.121 499.246 369.696 498.852 369.217 498.309 368.977 497.612 368.977Z" fill="#808386"/>
<path transform="matrix(1,0,0,-1,0,810.708)" stroke-width=".265" stroke-linecap="butt" stroke-miterlimit="4" stroke-linejoin="miter" fill="none" stroke="#808386" d="M495.943 365.373H499.345V345.972H495.943ZM497.575 368.977C496.917 368.977 496.411 369.217 496.057 369.696 495.638 370.121 495.429 370.639 495.429 371.249 495.429 371.906 495.638 372.439 496.057 372.837 496.436 373.266 496.967 373.478 497.651 373.478 498.321 373.478 498.852 373.266 499.246 372.837 499.625 372.439 499.816 371.906 499.816 371.249 499.816 370.639 499.625 370.121 499.246 369.696 498.852 369.217 498.309 368.977 497.612 368.977H497.575Z"/>
<path transform="matrix(1,0,0,-1,513.0709,462.56523)" d="M0 0C1.657 .027 3.033 .746 4.122 2.163 5.159 3.539 5.692 5.355 5.718 7.607 5.718 9.376 5.293 11.041 4.445 12.602 3.558 14.174 2.102 14.993 .075 15.059-1.887 14.993-3.338 14.201-4.275 12.679-5.212 11.146-5.681 9.419-5.681 7.491-5.681 5.316-5.15 3.539-4.085 2.163-3.046 .746-1.698 .027-.039 0ZM-.114-2.623C-2.706-2.581-4.831-1.669-6.486 .12-8.219 1.881-9.098 4.296-9.123 7.363-9.098 10.651-8.18 13.189-6.372 14.978-4.64 16.782-2.453 17.682 .189 17.682 2.934 17.655 5.121 16.74 6.753 14.939 8.383 13.151 9.214 10.751 9.237 7.734 9.187 4.145 8.207 1.522 6.297-.135 4.4-1.792 2.275-2.623-.077-2.623Z" fill="#808386"/>
<path transform="matrix(1,0,0,-1,513.0709,462.56523)" stroke-width=".265" stroke-linecap="butt" stroke-miterlimit="4" stroke-linejoin="miter" fill="none" stroke="#808386" d="M0 0C1.657 .027 3.033 .746 4.122 2.163 5.159 3.539 5.692 5.355 5.718 7.607 5.718 9.376 5.293 11.041 4.445 12.602 3.558 14.174 2.102 14.993 .075 15.059-1.887 14.993-3.338 14.201-4.275 12.679-5.212 11.146-5.681 9.419-5.681 7.491-5.681 5.316-5.15 3.539-4.085 2.163-3.046 .746-1.698 .027-.039 0H0ZM-.114-2.623C-2.706-2.581-4.831-1.669-6.486 .12-8.219 1.881-9.098 4.296-9.123 7.363-9.098 10.651-8.18 13.189-6.372 14.978-4.64 16.782-2.453 17.682 .189 17.682 2.934 17.655 5.121 16.74 6.753 14.939 8.383 13.151 9.214 10.751 9.237 7.734 9.187 4.145 8.207 1.522 6.297-.135 4.4-1.792 2.275-2.623-.077-2.623H-.114Z"/>
<path transform="matrix(1,0,0,-1,527.3264,450.5698)" d="M0 0C0 1.966-.054 3.713-.162 5.235H2.87L3.06 2.078H3.137C3.604 3.04 4.369 3.879 5.432 4.593 6.49 5.296 7.8 5.66 9.357 5.687 10.048 5.687 10.778 5.575 11.536 5.354 12.281 5.092 12.988 4.667 13.66 4.08 14.34 3.492 14.897 2.65 15.329 1.553 15.77 .483 15.99-.892 15.99-2.577V-14.167H12.59V-2.959C12.59-1.352 12.277 .015 11.655 1.14 10.983 2.241 9.844 2.801 8.233 2.828 7.143 2.801 6.193 2.457 5.381 1.789 4.559 1.12 3.975 .263 3.631-.78 3.481-1.267 3.404-1.816 3.404-2.43V-14.167H0Z" fill="#808386"/>
<path transform="matrix(1,0,0,-1,527.3264,450.5698)" stroke-width=".265" stroke-linecap="butt" stroke-miterlimit="4" stroke-linejoin="miter" fill="none" stroke="#808386" d="M0 0C0 1.966-.054 3.713-.162 5.235H2.87L3.06 2.078H3.137C3.604 3.04 4.369 3.879 5.432 4.593 6.49 5.296 7.8 5.66 9.357 5.687 10.048 5.687 10.778 5.575 11.536 5.354 12.281 5.092 12.988 4.667 13.66 4.08 14.34 3.492 14.897 2.65 15.329 1.553 15.77 .483 15.99-.892 15.99-2.577V-14.167H12.59V-2.959C12.59-1.352 12.277 .015 11.655 1.14 10.983 2.241 9.844 2.801 8.233 2.828 7.143 2.801 6.193 2.457 5.381 1.789 4.559 1.12 3.975 .263 3.631-.78 3.481-1.267 3.404-1.816 3.404-2.43V-14.167H0V0Z"/>
<path transform="matrix(1,0,0,-1,549.1074,461.2092)" d="M0 0C.545-.313 1.229-.61 2.051-.885 2.863-1.198 3.701-1.356 4.563-1.356 5.803-1.356 6.722-1.074 7.317-.514 7.889 .023 8.175 .703 8.175 1.53 8.175 2.364 7.912 3.067 7.394 3.628 6.85 4.165 5.957 4.655 4.713 5.099 1.329 6.421-.344 8.26-.305 10.616-.305 12.223 .278 13.579 1.441 14.676 2.608 15.75 4.188 16.299 6.185 16.326 8.148 16.299 9.674 15.897 10.759 15.117L9.944 12.602C9.612 12.876 9.106 13.131 8.422 13.371 7.773 13.591 6.993 13.715 6.081 13.742 5.08 13.742 4.319 13.487 3.798 12.977 3.253 12.467 2.982 11.833 2.982 11.076 2.982 10.307 3.268 9.677 3.836 9.195 4.431 8.685 5.327 8.202 6.517 7.746 9.786 6.645 11.435 4.694 11.458 1.885 11.458 .147 10.852-1.259 9.639-2.329 8.426-3.388 6.703-3.937 4.466-3.979 2.341-3.941 .587-3.488-.804-2.627Z" fill="#808386"/>
<path transform="matrix(1,0,0,-1,549.1074,461.2092)" stroke-width=".265" stroke-linecap="butt" stroke-miterlimit="4" stroke-linejoin="miter" fill="none" stroke="#808386" d="M0 0C.545-.313 1.229-.61 2.051-.885 2.863-1.198 3.701-1.356 4.563-1.356 5.803-1.356 6.722-1.074 7.317-.514 7.889 .023 8.175 .703 8.175 1.53 8.175 2.364 7.912 3.067 7.394 3.628 6.85 4.165 5.957 4.655 4.713 5.099 1.329 6.421-.344 8.26-.305 10.616-.305 12.223 .278 13.579 1.441 14.676 2.608 15.75 4.188 16.299 6.185 16.326 8.148 16.299 9.674 15.897 10.759 15.117L9.944 12.602C9.612 12.876 9.106 13.131 8.422 13.371 7.773 13.591 6.993 13.715 6.081 13.742 5.08 13.742 4.319 13.487 3.798 12.977 3.253 12.467 2.982 11.833 2.982 11.076 2.982 10.307 3.268 9.677 3.836 9.195 4.431 8.685 5.327 8.202 6.517 7.746 9.786 6.645 11.435 4.694 11.458 1.885 11.458 .147 10.852-1.259 9.639-2.329 8.426-3.388 6.703-3.937 4.466-3.979 2.341-3.941 .587-3.488-.804-2.627L0 0Z"/>
<path transform="matrix(1,0,0,-1,179.2424,449.5646)" d="M0 0C0-8.806 2.889-13.983 14.131-13.983 21.44-13.983 31.464-13.074 40.274-11.556L43.476-31.464C33.452-33.596 24.329-34.649 14.131-34.649-11.39-34.649-22.801-22.036-22.801-3.642V38.608C-22.801 56.989-11.39 69.61 14.131 69.61 24.329 69.61 33.452 68.553 43.476 66.426L40.274 46.517C31.464 48.022 21.44 48.949 14.131 48.949 2.889 48.949 0 43.767 0 34.953Z" fill="#24428f"/>
<path transform="matrix(1,0,0,-1,0,810.708)" d="M240.021 429.231H262.819V328.004H240.021Z" fill="#24428f"/>
<path transform="matrix(1,0,0,-1,303.2796,449.5646)" d="M0 0C0-8.806 2.893-13.983 14.139-13.983 21.462-13.983 31.464-13.074 40.283-11.556L43.485-31.464C33.439-33.596 24.329-34.649 14.139-34.649-11.381-34.649-22.806-22.036-22.806-3.642V38.608C-22.806 56.989-11.381 69.61 14.139 69.61 24.329 69.61 33.439 68.553 43.485 66.426L40.283 46.517C31.464 48.022 21.462 48.949 14.139 48.949 2.893 48.949 0 43.767 0 34.953Z" fill="#24428f"/>
<path transform="matrix(1,0,0,-1,0,810.708)" d="M380.895 328H384.323V429.227H380.895Z" fill="#808386"/>
<path transform="matrix(1,0,0,-1,155.5401,322.84333)" d="M0 0-24.86 11.042V39.435H-15.545V17.098L3.781 8.519Z" fill="#63bc47"/>
<path transform="matrix(1,0,0,-1,153.4083,366.0802)" d="M0 0-57.081 30.533-114.692 .335-119.016 8.588-57.037 41.079 4.403 8.214Z" fill="#24428f"/>
<path transform="matrix(1,0,0,-1,136.2666,379.5064)" d="M0 0-39.965 22.167-79.756 .931-84.142 9.158-39.878 32.774 4.525 8.149Z" fill="#15a24b"/>
<path transform="matrix(1,0,0,-1,118.5768,391.8577)" d="M0 0-22.414 13.317-44.585 2.088-48.792 10.411-22.049 23.946 4.76 8.014Z" fill="#63bc47"/>
<path transform="matrix(1,0,0,-1,0,810.708)" d="M100.992 480.429H91.681V548.151H100.992Z" fill="#24428f"/>
<path transform="matrix(1,0,0,-1,154.6005,343.57853)" d="M0 0-42.967 21.566V72.595H-33.648V27.309L4.185 8.331Z" fill="#15a24b"/>
<path transform="matrix(1,0,0,-1,37.6808,343.57853)" d="M0 0-4.185 8.331 33.639 27.309V72.595H42.958V21.566Z" fill="#15a24b"/>
<path transform="matrix(1,0,0,-1,36.7193,322.84333)" d="M0 0-3.781 8.519 15.545 17.098V39.435H24.864V11.042Z" fill="#63bc47"/>
<path transform="matrix(1,0,0,-1,0,810.708)" d="M386.482 328.013H381.274V429.087H386.482Z" fill="#808386"/>
</g>
</g>
</svg>
