<?xml version="1.0" encoding="UTF-8"?>
<svg version="1.1" xmlns="http://www.w3.org/2000/svg" width="164" height="162">
<path d="M0 0 C4.29 0 8.58 0 13 0 C13.33 26.73 13.66 53.46 14 81 C19.28 83.64 24.56 86.28 30 89 C34.21494137 91.15531052 38.42484886 93.31646097 42.625 95.5 C44.24136353 96.33954224 44.24136353 96.33954224 45.89038086 97.19604492 C52.59207398 100.69466723 59.17137087 104.33187788 65.69921875 108.14453125 C71.99957931 111.68615405 78.50702078 114.82940235 85 118 C84.45897018 121.60064671 83.64824474 123.9215261 81.4375 126.8125 C80.98246094 127.41707031 80.52742187 128.02164063 80.05859375 128.64453125 C79.70925781 129.09183594 79.35992187 129.53914062 79 130 C74.77198934 128.41820412 70.8245229 126.40806622 66.84765625 124.2890625 C66.15908539 123.92458511 65.47051453 123.56010773 64.76107788 123.18458557 C62.52677098 122.00076306 60.2945521 120.81306766 58.0625 119.625 C56.52290013 118.80763773 54.9832678 117.99033662 53.44360352 117.1730957 C43.09268849 111.67295055 32.7722794 106.11921239 22.49609375 100.48046875 C21.74956543 100.07489746 21.00303711 99.66932617 20.23388672 99.25146484 C18.67901036 98.38039422 17.14512295 97.47122641 15.62939453 96.53369141 C14.8557959 96.06495605 14.08219727 95.5962207 13.28515625 95.11328125 C12.60461182 94.68442627 11.92406738 94.25557129 11.22290039 93.8137207 C7.05479738 92.28793406 3.74960342 93.67167416 -0.17773438 95.3918457 C-1.30501953 95.98054443 -2.43230469 96.56924316 -3.59375 97.17578125 C-4.52412582 97.6577597 -4.52412582 97.6577597 -5.47329712 98.1494751 C-7.48664889 99.19552432 -9.49336702 100.2536275 -11.5 101.3125 C-12.89541461 102.04142445 -14.29108748 102.76985472 -15.68701172 103.49780273 C-28.58081219 110.23887729 -41.44822041 117.06827424 -54.05859375 124.328125 C-54.66106934 124.66900146 -55.26354492 125.00987793 -55.88427734 125.36108398 C-57.40960608 126.22582156 -58.9260398 127.10620227 -60.44140625 127.98828125 C-63.51340951 129.20301231 -64.93595782 129.20798956 -68 128 C-69.3984375 126.2578125 -69.3984375 126.2578125 -70.375 124.125 C-70.88160156 123.07699219 -70.88160156 123.07699219 -71.3984375 122.0078125 C-72 120 -72 120 -71 117 C-69.16845703 115.80834961 -69.16845703 115.80834961 -66.7578125 114.65234375 C-65.86682861 114.21752686 -64.97584473 113.78270996 -64.05786133 113.3347168 C-63.09001709 112.87363525 -62.12217285 112.41255371 -61.125 111.9375 C-59.08902799 110.94437895 -57.05388386 109.94955908 -55.01953125 108.953125 C-53.99811035 108.45490234 -52.97668945 107.95667969 -51.92431641 107.44335938 C-47.84741323 105.43111597 -43.82607957 103.32261813 -39.8125 101.1875 C-34.19591795 98.20640992 -28.56717802 95.25088138 -22.91796875 92.33203125 C-22.30532669 92.01533981 -21.69268463 91.69864838 -21.06147766 91.37236023 C-18.60097937 90.10083325 -16.14030298 88.82966911 -13.67788696 87.56185913 C-11.96157224 86.67814815 -10.24638873 85.79224124 -8.53125 84.90625 C-7.53673828 84.39384766 -6.54222656 83.88144531 -5.51757812 83.35351562 C-2.86710102 81.97969952 -2.86710102 81.97969952 0 80 C0.2864952 77.39712638 0.37848245 75.03294626 0.34057617 72.42919922 C0.34101425 71.64862152 0.34145233 70.86804382 0.34190369 70.06381226 C0.33980941 67.47718511 0.31644883 64.89120176 0.29296875 62.3046875 C0.28737506 60.51392979 0.28310389 58.7231675 0.28010559 56.93240356 C0.26863895 52.21404392 0.23915625 47.49596036 0.20599365 42.77770996 C0.17533187 37.96512589 0.1616086 33.1524973 0.14648438 28.33984375 C0.11428819 18.89310772 0.06306998 9.4465768 0 0 Z " fill="#25428D" transform="translate(73,0)"/>
<path d="M0 0 C2.64568434 1.30115623 5.14767901 2.64331647 7.6875 4.125 C9.27046026 5.02669693 10.85382109 5.92769087 12.4375 6.828125 C13.31019531 7.32763672 14.18289062 7.82714844 15.08203125 8.34179688 C20.1602882 11.22763366 25.27519266 14.04773446 30.38516235 16.87689209 C45.09962143 25.02554172 45.09962143 25.02554172 52 29 C51.42365861 33.75481646 49.44931479 36.97048212 47 41 C43.26769808 40.41921761 40.52829375 39.38304974 37.26953125 37.48828125 C36.38330078 36.97716797 35.49707031 36.46605469 34.58398438 35.93945312 C33.66939453 35.40255859 32.75480469 34.86566406 31.8125 34.3125 C30.91724609 33.79494141 30.02199219 33.27738281 29.09960938 32.74414062 C23.7703715 29.654337 18.48253754 26.49785763 13.20336914 23.32348633 C10.58712286 21.75199923 7.96614193 20.19515874 5.3125 18.6875 C4.46300781 18.19636719 3.61351562 17.70523438 2.73828125 17.19921875 C-2.17817574 15.0460771 -5.63651133 14.47744402 -10.7253418 16.42773438 C-12.06012739 17.13077922 -13.38442206 17.85399713 -14.69921875 18.59375 C-15.41551956 18.97809204 -16.13182037 19.36243408 -16.86982727 19.75842285 C-19.15209115 20.98861667 -21.41943587 22.24385627 -23.6875 23.5 C-25.19116889 24.31414296 -26.69572019 25.12665839 -28.20117188 25.9375 C-35.80670024 30.05321998 -43.31101208 34.29233254 -50.69067383 38.80273438 C-53 40 -53 40 -56 40 C-56.70492893 38.78074525 -57.38825901 37.5489894 -58.0625 36.3125 C-58.44535156 35.62800781 -58.82820313 34.94351563 -59.22265625 34.23828125 C-60.22790346 31.34377545 -59.95413475 29.90011156 -59 27 C-57.02905273 25.47363281 -57.02905273 25.47363281 -54.43359375 24.203125 C-53.480896 23.72383545 -52.52819824 23.2445459 -51.54663086 22.75073242 C-50.52061768 22.25549072 -49.49460449 21.76024902 -48.4375 21.25 C-46.32184156 20.1909471 -44.20726128 19.12973769 -42.09375 18.06640625 C-41.0521875 17.5470752 -40.010625 17.02774414 -38.9375 16.49267578 C-35.03332216 14.50878754 -31.23129201 12.37303847 -27.4375 10.1875 C-22.44860534 7.35694863 -17.45152697 4.54589711 -12.375 1.875 C-11.28960937 1.29492188 -10.20421875 0.71484375 -9.0859375 0.1171875 C-5.37813132 -1.22513221 -3.75864134 -1.14331295 0 0 Z " fill="#1FA453" transform="translate(84,106)"/>
<path d="M0 0 C3.63 0 7.26 0 11 0 C11.33 19.14 11.66 38.28 12 58 C27.08612004 65.40452719 27.08612004 65.40452719 42.18725586 72.77832031 C44.07200326 73.71047441 45.9562355 74.64367117 47.83984375 75.578125 C48.82795044 76.05427246 49.81605713 76.53041992 50.83410645 77.02099609 C51.76791138 77.48747559 52.70171631 77.95395508 53.66381836 78.43457031 C54.47878281 78.8342804 55.29374725 79.23399048 56.13340759 79.64581299 C58 81 58 81 58.81959534 83.02655029 C59.05828111 85.63753802 58.31625004 86.97045448 57.0625 89.25 C56.49208984 90.30960938 56.49208984 90.30960938 55.91015625 91.390625 C55.60980469 91.92171875 55.30945313 92.4528125 55 93 C48.79122676 92.52687156 44.22889288 90.42883738 38.75 87.5625 C37.88391113 87.11946533 37.01782227 86.67643066 36.12548828 86.2199707 C33.41022499 84.82594538 30.70392602 83.41587754 28 82 C27.13536133 81.54786133 26.27072266 81.09572266 25.37988281 80.62988281 C22.12262433 78.92358144 18.86680671 77.21486712 15.62011719 75.48852539 C11.67844727 73.39336 7.7182421 71.3465029 3.72314453 69.35473633 C2.83499054 68.91164627 1.94683655 68.46855621 1.0317688 68.01203918 C0.3612851 67.67806625 -0.30919861 67.34409332 -1 67 C-1.02312635 58.4119428 -1.04091658 49.82389851 -1.05181217 41.23581791 C-1.05704036 37.248428 -1.06413684 33.26105933 -1.07543945 29.27368164 C-1.08627061 25.42874886 -1.09227732 21.58383655 -1.09487724 17.73888969 C-1.09673108 16.26881017 -1.10035091 14.79873182 -1.10573006 13.32866096 C-1.11294355 11.27645533 -1.11399081 9.22433533 -1.11352539 7.17211914 C-1.115746 6.00185684 -1.11796661 4.83159454 -1.12025452 3.62586975 C-1 1 -1 1 0 0 Z " fill="#13A149" transform="translate(100,8)"/>
<path d="M0 0 C0.9075 0.00257813 1.815 0.00515625 2.75 0.0078125 C4.11125 0.00394531 4.11125 0.00394531 5.5 0 C7.75 0.1328125 7.75 0.1328125 8.75 1.1328125 C8.84413687 3.18837911 8.86742998 5.24721431 8.86352539 7.30493164 C8.86367142 7.94881332 8.86381744 8.59269501 8.8639679 9.25608826 C8.86326885 11.39341553 8.85547691 13.53065663 8.84765625 15.66796875 C8.84579204 17.14627535 8.84436815 18.62458257 8.84336853 20.10289001 C8.83954359 24.00080052 8.82971352 27.89867399 8.81866455 31.79656982 C8.80844992 35.77127583 8.8038708 39.74598779 8.79882812 43.72070312 C8.78809122 51.5247565 8.77101509 59.32877932 8.75 67.1328125 C8.15531418 67.4290451 7.56062836 67.72527771 6.94792175 68.03048706 C0.76640319 71.11019652 -5.41371314 74.19270595 -11.59301758 77.27685547 C-13.90027493 78.42796761 -16.20789056 79.57836194 -18.51586914 80.72802734 C-21.83053207 82.37930365 -25.14390395 84.0331452 -28.45703125 85.6875 C-29.4914888 86.20214813 -30.52594635 86.71679626 -31.5917511 87.24703979 C-32.5525206 87.72738678 -33.5132901 88.20773376 -34.50317383 88.70263672 C-35.77225334 89.33551102 -35.77225334 89.33551102 -37.06697083 89.98117065 C-39.43922609 91.18501894 -39.43922609 91.18501894 -42.25 93.1328125 C-44.9375 93.2578125 -44.9375 93.2578125 -47.25 93.1328125 C-47.92667998 91.88820467 -48.59094719 90.63684354 -49.25 89.3828125 C-49.806875 88.33867187 -49.806875 88.33867187 -50.375 87.2734375 C-51.25 85.1328125 -51.25 85.1328125 -51.25 81.1328125 C-48.91228866 80.01477664 -46.57456928 78.89675761 -44.23681641 77.77880859 C-42.18818182 76.79894126 -40.13968119 75.8187938 -38.09130859 74.83837891 C-32.60953675 72.21513296 -27.12553668 69.59675563 -21.63671875 66.98828125 C-20.06192749 66.23865112 -20.06192749 66.23865112 -18.45532227 65.47387695 C-16.4214614 64.50587073 -14.38680775 63.53952826 -12.35131836 62.57495117 C-11.43358643 62.13771729 -10.51585449 61.7004834 -9.5703125 61.25 C-8.75836426 60.86440918 -7.94641602 60.47881836 -7.10986328 60.08154297 C-5.28609449 59.27176615 -5.28609449 59.27176615 -4.25 58.1328125 C-4.13200657 56.35891775 -4.08265499 54.58041159 -4.06054688 52.80273438 C-4.03547058 51.09591492 -4.03547058 51.09591492 -4.0098877 49.35461426 C-3.99631226 48.11610718 -3.98273682 46.8776001 -3.96875 45.6015625 C-3.95034058 44.34017456 -3.93193115 43.07878662 -3.91296387 41.7791748 C-3.85398888 37.73043572 -3.80106047 33.68165695 -3.75 29.6328125 C-3.68287082 24.30979892 -3.60893508 18.98693549 -3.53125 13.6640625 C-3.51767456 12.42555542 -3.50409912 11.18704834 -3.4901123 9.91101074 C-3.46503601 8.20419128 -3.46503601 8.20419128 -3.43945312 6.46289062 C-3.42692505 5.45552856 -3.41439697 4.4481665 -3.40148926 3.41027832 C-3.19834904 0.35629998 -3.05553899 0.18036168 0 0 Z " fill="#13A24A" transform="translate(51.25,7.8671875)"/>
<path d="M0 0 C0.99 1.98 0.99 1.98 2 4 C0.68 3.67 -0.64 3.34 -2 3 C-2 4.98 -2 6.96 -2 9 C2.04141194 9.63394697 5.9065307 10.12404452 10 10 C7.40309011 12.59690989 4.3867841 13.9095368 1.125 15.5 C-0.33855252 16.2239364 -1.80209367 16.94789577 -3.265625 17.671875 C-5.62909985 18.83491716 -7.99320839 19.99666328 -10.35742188 21.15820312 C-20.15704007 25.98151561 -29.85599812 30.94222405 -39.4375 36.1875 C-40.36312744 36.69337646 -41.28875488 37.19925293 -42.24243164 37.72045898 C-46.21481445 39.89840214 -50.17554432 42.09100876 -54.1015625 44.3515625 C-55.81472656 45.32222656 -55.81472656 45.32222656 -57.5625 46.3125 C-58.98755859 47.14201172 -58.98755859 47.14201172 -60.44140625 47.98828125 C-63.51340951 49.20301231 -64.93595782 49.20798956 -68 48 C-69.3984375 46.2578125 -69.3984375 46.2578125 -70.375 44.125 C-70.71273437 43.42632812 -71.05046875 42.72765625 -71.3984375 42.0078125 C-72 40 -72 40 -71 37 C-69.16845703 35.80834961 -69.16845703 35.80834961 -66.7578125 34.65234375 C-65.86682861 34.21752686 -64.97584473 33.78270996 -64.05786133 33.3347168 C-62.60609497 32.64309448 -62.60609497 32.64309448 -61.125 31.9375 C-59.08902799 30.94437895 -57.05388386 29.94955908 -55.01953125 28.953125 C-53.4873999 28.20579102 -53.4873999 28.20579102 -51.92431641 27.44335938 C-47.84741323 25.43111597 -43.82607957 23.32261813 -39.8125 21.1875 C-34.19591795 18.20640992 -28.56717802 15.25088138 -22.91796875 12.33203125 C-22.30532669 12.01533981 -21.69268463 11.69864838 -21.06147766 11.37236023 C-18.60097937 10.10083325 -16.14030298 8.82966911 -13.67788696 7.56185913 C-11.96157224 6.67814815 -10.24638873 5.79224124 -8.53125 4.90625 C-7.53673828 4.39384766 -6.54222656 3.88144531 -5.51757812 3.35351562 C-2.86710102 1.97969952 -2.86710102 1.97969952 0 0 Z " fill="#28458C" transform="translate(73,80)"/>
<path d="M0 0 C5.35520268 0.36813913 8.92299074 1.76037279 13.484375 4.52734375 C14.06664856 4.87632217 14.64892212 5.2253006 15.24884033 5.58485413 C17.08938061 6.69154858 18.91956891 7.81418216 20.75 8.9375 C21.99285005 9.6879092 23.23633484 10.43726817 24.48046875 11.18554688 C28.69576415 13.72812346 32.90336137 16.26890758 37 19 C35.77472971 23.05281712 34.30119506 26.44360764 32 30 C29.17740477 29.3933573 26.92620019 28.54518503 24.42578125 27.109375 C23.76239746 26.73143799 23.09901367 26.35350098 22.41552734 25.96411133 C21.72152832 25.56345459 21.0275293 25.16279785 20.3125 24.75 C19.59787598 24.34612061 18.88325195 23.94224121 18.14697266 23.52612305 C15.11435142 21.80947354 12.11456497 20.0717016 9.16015625 18.22265625 C8.40605469 17.75730469 7.65195313 17.29195312 6.875 16.8125 C5.94300781 16.20341797 5.94300781 16.20341797 4.9921875 15.58203125 C-1.29633968 13.74479488 -10.35926233 20.67628027 -15.83203125 23.54296875 C-16.69441406 23.98511719 -17.55679688 24.42726562 -18.4453125 24.8828125 C-19.22406738 25.28902832 -20.00282227 25.69524414 -20.80517578 26.11376953 C-23 27 -23 27 -27 27 C-27.67408308 25.73308493 -28.33900497 24.46129251 -29 23.1875 C-29.37125 22.47980469 -29.7425 21.77210938 -30.125 21.04296875 C-31 19 -31 19 -31 16 C-30.09644775 15.55084229 -29.19289551 15.10168457 -28.26196289 14.63891602 C-24.91948546 12.97670691 -21.57831916 11.31187729 -18.23754883 9.64624023 C-16.78966503 8.92481738 -15.34142355 8.20411194 -13.89282227 7.48413086 C-11.81432832 6.45092809 -9.73712167 5.41517756 -7.66015625 4.37890625 C-7.00910416 4.05596085 -6.35805206 3.73301544 -5.68727112 3.40028381 C-2.64083494 2.00108115 -2.64083494 2.00108115 0 0 Z " fill="#65BA4C" transform="translate(77,132)"/>
<path d="M0 0 C10 0 10 0 12 1 C12 13.21 12 25.42 12 38 C8.885625 39.4025 5.77125 40.805 2.5625 42.25 C1.11919312 42.9001709 1.11919312 42.9001709 -0.35327148 43.56347656 C-2.03380823 44.31998387 -3.71546893 45.07399693 -5.39794922 45.82617188 C-7.11409964 46.6003557 -8.82430638 47.38787142 -10.52783203 48.18945312 C-11.31399902 48.55490234 -12.10016602 48.92035156 -12.91015625 49.296875 C-13.60375244 49.62526367 -14.29734863 49.95365234 -15.01196289 50.29199219 C-17 51 -17 51 -21 51 C-23.69624506 46.39391469 -24.15087022 43.28674382 -24 38 C-22.92621094 37.60167969 -21.85242188 37.20335937 -20.74609375 36.79296875 C-19.30986242 36.25790218 -17.87366638 35.72274086 -16.4375 35.1875 C-15.73302734 34.92646484 -15.02855469 34.66542969 -14.30273438 34.39648438 C-13.60341797 34.13544922 -12.90410156 33.87441406 -12.18359375 33.60546875 C-11.54993896 33.36981201 -10.91628418 33.13415527 -10.26342773 32.89135742 C-7.14717289 31.66414931 -4.07839276 30.31931118 -1 29 C-0.67 19.43 -0.34 9.86 0 0 Z " fill="#62BB47" transform="translate(24,24)"/>
<path d="M0 0 C3.96 0.33 7.92 0.66 12 1 C12.33 10.24 12.66 19.48 13 29 C20.19406815 31.9196409 20.19406815 31.9196409 27.39038086 34.83374023 C28.28120361 35.19669189 29.17202637 35.55964355 30.08984375 35.93359375 C31.00628662 36.30540771 31.92272949 36.67722168 32.86694336 37.06030273 C35 38 35 38 36 39 C35.58335431 43.33311515 34.80210791 47.03536259 33 51 C28.36287448 51.43912173 25.05060183 49.896055 21 47.875 C14.03644286 44.49314002 7.03459954 41.24673825 0 38 C0 25.46 0 12.92 0 0 Z " fill="#64B94B" transform="translate(123,24)"/>
<path d="M0 0 C4.91354358 1.50145381 9.39323293 3.5135905 13.98828125 5.7734375 C15.1039875 6.32096176 15.1039875 6.32096176 16.24223328 6.87954712 C17.80398244 7.64884114 19.36457912 8.42047881 20.92407227 9.19433594 C23.31631104 10.3768839 25.71745083 11.53991761 28.11914062 12.703125 C29.63860964 13.45453969 31.15751078 14.20710403 32.67578125 14.9609375 C33.39550613 15.3058725 34.11523102 15.6508075 34.85676575 16.00619507 C39.81585949 18.50796521 39.81585949 18.50796521 40.74479675 20.99014282 C41.08239472 23.64890094 40.342033 24.92357636 39.0625 27.25 C38.49208984 28.30960938 38.49208984 28.30960938 37.91015625 29.390625 C37.60980469 29.92171875 37.30945313 30.4528125 37 31 C30.79144584 30.52688825 26.22856142 28.42930173 20.75 25.5625 C19.88971191 25.12164062 19.02942383 24.68078125 18.14306641 24.2265625 C15.42313337 22.82822081 12.71147472 21.41466146 10 20 C8.17987218 19.06083991 6.35956218 18.12203282 4.5390625 17.18359375 C2.81713939 16.29015817 1.09576429 15.39566543 -0.625 14.5 C-1.43614258 14.07920166 -2.24728516 13.65840332 -3.08300781 13.22485352 C-4.20594238 12.63401978 -4.20594238 12.63401978 -5.3515625 12.03125 C-6.33890381 11.51401367 -6.33890381 11.51401367 -7.34619141 10.98632812 C-9 10 -9 10 -11 8 C-10.278125 8.144375 -9.55625 8.28875 -8.8125 8.4375 C-7.4203125 8.7159375 -7.4203125 8.7159375 -6 9 C-4.33333333 9.33333333 -2.66666667 9.66666667 -1 10 C0.71677553 7.23394361 0.71677553 7.23394361 2 4 C1.32575833 1.64539322 1.32575833 1.64539322 0 0 Z " fill="#1EA352" transform="translate(118,70)"/>
<path d="M0 0 C1.99954746 -0.04254356 4.00041636 -0.04080783 6 0 C7 1 7 1 7.11352539 3.50024414 C7.10828857 4.58426514 7.10305176 5.66828613 7.09765625 6.78515625 C7.09443359 7.95498047 7.09121094 9.12480469 7.08789062 10.33007812 C7.07951172 11.56177734 7.07113281 12.79347656 7.0625 14.0625 C7.05798828 15.29806641 7.05347656 16.53363281 7.04882812 17.80664062 C7.03699608 20.87114117 7.02051173 23.93554721 7 27 C7.66 27 8.32 27 9 27 C9.66 27.99 10.32 28.98 11 30 C13.05925139 30.72382467 13.05925139 30.72382467 15 31 C15.33 32.32 15.66 33.64 16 35 C14.4375 36.5625 14.4375 36.5625 12 38 C6.7069487 37.80026222 2.74904941 36.09934084 -2 34 C-2.04953687 29.80079763 -2.08578411 25.60175131 -2.10986328 21.40234375 C-2.11990427 19.97457922 -2.13353981 18.54683517 -2.15087891 17.11914062 C-2.17521152 15.06375059 -2.18650202 13.00863308 -2.1953125 10.953125 C-2.20578613 9.71723633 -2.21625977 8.48134766 -2.22705078 7.20800781 C-2.01298081 4.18340629 -1.59653159 2.53014349 0 0 Z " fill="#62BB48" transform="translate(127,27)"/>
<path d="M0 0 C0.66 0.33 1.32 0.66 2 1 C1.67 1.66 1.34 2.32 1 3 C0.01 3.33 -0.98 3.66 -2 4 C-4.40995366 6.63541018 -4.40995366 6.63541018 -5 10 C-5.99 10.33 -6.98 10.66 -8 11 C-8 11.99 -8 12.98 -8 14 C-8 14.66 -8 15.32 -8 16 C-6.68528432 15.71848913 -5.37324233 15.42446661 -4.0625 15.125 C-2.96615234 14.88136719 -2.96615234 14.88136719 -1.84765625 14.6328125 C0.20700294 14.17038477 0.20700294 14.17038477 1 12 C2 11 2 11 4.5625 10.9375 C5.366875 10.958125 6.17125 10.97875 7 11 C4.1107075 13.2952402 1.21266028 15.0053598 -2.09765625 16.62890625 C-3.06380859 17.10650391 -4.02996094 17.58410156 -5.02539062 18.07617188 C-6.02763672 18.56666016 -7.02988281 19.05714844 -8.0625 19.5625 C-10.05427433 20.5411617 -12.04519865 21.52155577 -14.03515625 22.50390625 C-14.9156665 22.93517822 -15.79617676 23.3664502 -16.70336914 23.81079102 C-19.17497992 25.03721679 -19.17497992 25.03721679 -22 27 C-24.6875 27.125 -24.6875 27.125 -27 27 C-27.67667998 25.75539217 -28.34094719 24.50403104 -29 23.25 C-29.37125 22.55390625 -29.7425 21.8578125 -30.125 21.140625 C-31 19 -31 19 -31 15 C-30.34515625 14.68772461 -29.6903125 14.37544922 -29.015625 14.05371094 C-26.01005019 12.61990742 -23.00502194 11.18496187 -20 9.75 C-18.97003906 9.25886719 -17.94007812 8.76773438 -16.87890625 8.26171875 C-15.36103516 7.53662109 -15.36103516 7.53662109 -13.8125 6.796875 C-12.82121094 6.32443359 -11.82992188 5.85199219 -10.80859375 5.36523438 C-8.30394471 4.14774503 -5.84007001 2.87306684 -3.375 1.578125 C-2.26125 1.05734375 -1.1475 0.5365625 0 0 Z " fill="#21A153" transform="translate(31,74)"/>
<path d="M0 0 C3.63 0 7.26 0 11 0 C11.33 19.14 11.66 38.28 12 58 C13.98 58.99 15.96 59.98 18 61 C17.01 61.66 16.02 62.32 15 63 C15 62.34 15 61.68 15 61 C13.35 60.67 11.7 60.34 10 60 C8.98218472 56.94655415 8.87902759 54.89716208 8.88647461 51.70239258 C8.88655014 50.62149857 8.88662567 49.54060455 8.88670349 48.42695618 C8.89186478 47.26125595 8.89702606 46.09555573 8.90234375 44.89453125 C8.9037587 43.70018967 8.90517365 42.50584808 8.90663147 41.27531433 C8.9122365 37.45435092 8.92478989 33.63344575 8.9375 29.8125 C8.94251435 27.22461022 8.94707737 24.63671952 8.95117188 22.04882812 C8.96220757 15.69919882 8.97895064 9.34960357 9 3 C6.36 3 3.72 3 1 3 C1 22.8 1 42.6 1 63 C1.99 63.33 2.98 63.66 4 64 C7 67.44444444 7 67.44444444 7 70 C1.25 68.125 1.25 68.125 -1 67 C-1.02312635 58.4119428 -1.04091658 49.82389851 -1.05181217 41.23581791 C-1.05704036 37.248428 -1.06413684 33.26105933 -1.07543945 29.27368164 C-1.08627061 25.42874886 -1.09227732 21.58383655 -1.09487724 17.73888969 C-1.09673108 16.26881017 -1.10035091 14.79873182 -1.10573006 13.32866096 C-1.11294355 11.27645533 -1.11399081 9.22433533 -1.11352539 7.17211914 C-1.115746 6.00185684 -1.11796661 4.83159454 -1.12025452 3.62586975 C-1 1 -1 1 0 0 Z " fill="#2E9458" transform="translate(100,8)"/>
<path d="M0 0 C0.9075 0.00257813 1.815 0.00515625 2.75 0.0078125 C4.11125 0.00394531 4.11125 0.00394531 5.5 0 C7.75 0.1328125 7.75 0.1328125 8.75 1.1328125 C8.84413687 3.18837911 8.86742998 5.24721431 8.86352539 7.30493164 C8.86367142 7.94881332 8.86381744 8.59269501 8.8639679 9.25608826 C8.86326885 11.39341553 8.85547691 13.53065663 8.84765625 15.66796875 C8.84579204 17.14627535 8.84436815 18.62458257 8.84336853 20.10289001 C8.83954359 24.00080052 8.82971352 27.89867399 8.81866455 31.79656982 C8.80844992 35.77127583 8.8038708 39.74598779 8.79882812 43.72070312 C8.78809122 51.52475846 8.77049462 59.32877558 8.75 67.1328125 C-1.15 72.0828125 -1.15 72.0828125 -11.25 77.1328125 C-11.58 75.8128125 -11.91 74.4928125 -12.25 73.1328125 C-9.54120665 71.77841582 -7.24066732 72.06779799 -4.25 72.1328125 C-3.59 70.8128125 -2.93 69.4928125 -2.25 68.1328125 C-1.26 68.1328125 -0.27 68.1328125 0.75 68.1328125 C0.75 66.8128125 0.75 65.4928125 0.75 64.1328125 C2.4 64.1328125 4.05 64.1328125 5.75 64.1328125 C6.79126924 61.00900477 6.90552332 58.74763396 6.95532227 55.46801758 C6.97526749 54.30704056 6.99521271 53.14606354 7.01576233 51.9499054 C7.03247482 50.69671005 7.04918732 49.44351471 7.06640625 48.15234375 C7.08718735 46.86921799 7.10796844 45.58609222 7.12937927 44.26408386 C7.18451906 40.85618435 7.23396389 37.44822509 7.28222656 34.04022217 C7.33250079 30.56126602 7.38815591 27.08239643 7.44335938 23.60351562 C7.55084189 16.78002299 7.65230877 9.95645214 7.75 3.1328125 C4.45 3.1328125 1.15 3.1328125 -2.25 3.1328125 C-1.92 20.2928125 -1.59 37.4528125 -1.25 55.1328125 C-0.59 55.4628125 0.07 55.7928125 0.75 56.1328125 C-0.70505431 59.52793922 -2.32968259 61.84391507 -5.25 64.1328125 C-9 64.8828125 -9 64.8828125 -12.25 65.1328125 C-11.92 66.1228125 -11.59 67.1128125 -11.25 68.1328125 C-11.91 68.1328125 -12.57 68.1328125 -13.25 68.1328125 C-13.25 67.4728125 -13.25 66.8128125 -13.25 66.1328125 C-14.9 66.1328125 -16.55 66.1328125 -18.25 66.1328125 C-15.32096942 63.79916898 -12.36431797 62.08320414 -9 60.4453125 C-8.10796875 60.00832031 -7.2159375 59.57132813 -6.296875 59.12109375 C-5.28367187 58.63189453 -5.28367187 58.63189453 -4.25 58.1328125 C-4.2345388 57.0649929 -4.2345388 57.0649929 -4.21876526 55.9756012 C-4.12095102 49.27998424 -4.01845996 42.58445732 -3.91066074 35.88899326 C-3.8554012 32.4464551 -3.80197653 29.0039085 -3.75268555 25.5612793 C-3.69599199 21.60716724 -3.63142505 17.65320306 -3.56640625 13.69921875 C-3.54133751 11.83675255 -3.54133751 11.83675255 -3.51576233 9.93666077 C-3.49581711 8.79555344 -3.47587189 7.65444611 -3.45532227 6.47875977 C-3.43977798 5.4683815 -3.4242337 4.45800323 -3.40821838 3.41700745 C-3.19643533 0.35950065 -3.05975444 0.18061051 0 0 Z " fill="#4AA16B" transform="translate(51.25,7.8671875)"/>
<path d="M0 0 C-0.56371414 3.26954202 -1.49962266 4.82575883 -4 7 C-2.7934375 7.185625 -2.7934375 7.185625 -1.5625 7.375 C-0.716875 7.58125 0.12875 7.7875 1 8 C1.33 8.66 1.66 9.32 2 10 C3.97536745 9.65213292 3.97536745 9.65213292 6 9 C6.33 8.34 6.66 7.68 7 7 C8.32 7.66 9.64 8.32 11 9 C10.51120361 9.25692627 10.02240723 9.51385254 9.51879883 9.77856445 C7.28258238 10.95506057 5.04753503 12.13376116 2.8125 13.3125 C2.04357422 13.71662109 1.27464844 14.12074219 0.48242188 14.53710938 C-2.69520724 16.21457024 -5.81622518 17.88492136 -8.86328125 19.79296875 C-11 21 -11 21 -14 21 C-14.70492893 19.78074525 -15.38825901 18.5489894 -16.0625 17.3125 C-16.44535156 16.62800781 -16.82820313 15.94351563 -17.22265625 15.23828125 C-18.27055219 12.22097284 -18.28249987 10.95251768 -17 8 C-14.50202417 6.31010608 -12.24608699 4.99336366 -9.5625 3.6875 C-8.86833984 3.32849609 -8.17417969 2.96949219 -7.45898438 2.59960938 C-2.34394345 0 -2.34394345 0 0 0 Z " fill="#1EA250" transform="translate(42,125)"/>
<path d="M0 0 C10 0 10 0 12 1 C12 13.21 12 25.42 12 38 C8.885625 39.4025 5.77125 40.805 2.5625 42.25 C1.11919312 42.9001709 1.11919312 42.9001709 -0.35327148 43.56347656 C-2.03380823 44.31998387 -3.71546893 45.07399693 -5.39794922 45.82617188 C-7.11409964 46.6003557 -8.82430638 47.38787142 -10.52783203 48.18945312 C-11.31399902 48.55490234 -12.10016602 48.92035156 -12.91015625 49.296875 C-13.60375244 49.62526367 -14.29734863 49.95365234 -15.01196289 50.29199219 C-17 51 -17 51 -21 51 C-23.66590937 46.44573816 -24.31563182 43.26053037 -24 38 C-22.2097939 37.32942113 -20.41778511 36.6636531 -18.625 36 C-17.62726562 35.62875 -16.62953125 35.2575 -15.6015625 34.875 C-13 34 -13 34 -11 34 C-12.01755741 36.66130399 -12.66684861 37.80516056 -15.1640625 39.265625 C-15.97617188 39.59046875 -16.78828125 39.9153125 -17.625 40.25 C-18.44226563 40.58515625 -19.25953125 40.9203125 -20.1015625 41.265625 C-20.72804688 41.50796875 -21.35453125 41.7503125 -22 42 C-22 42.99 -22 43.98 -22 45 C-16.51325682 45.90226443 -12.1993795 46.46970526 -7 44 C-6.67 43.34 -6.34 42.68 -6 42 C-2.9375 41.375 -2.9375 41.375 0 41 C0.33 39.02 0.66 37.04 1 35 C1.66 35.66 2.32 36.32 3 37 C3.66 36.01 4.32 35.02 5 34 C5.66 34.99 6.32 35.98 7 37 C8.32 37 9.64 37 11 37 C11 25.78 11 14.56 11 3 C8.69 3.33 6.38 3.66 4 4 C3.01 3.67 2.02 3.34 1 3 C1 12.24 1 21.48 1 31 C0.34 31 -0.32 31 -1 31 C-0.67 20.77 -0.34 10.54 0 0 Z " fill="#7DB96A" transform="translate(24,24)"/>
<path d="M0 0 C4.73789165 1.44323469 8.98858151 3.37226733 13.375 5.625 C14.33599609 6.11226563 14.33599609 6.11226563 15.31640625 6.609375 C16.87947501 7.40257407 18.44000622 8.20077031 20 9 C16.23023755 10.1445351 14.6056351 9.5716871 11 8 C10.01 8 9.02 8 8 8 C7.01 9.485 7.01 9.485 6 11 C5.34 11 4.68 11 4 11 C4.66 12.65 5.32 14.3 6 16 C7.98 16 9.96 16 12 16 C12 16.66 12 17.32 12 18 C15.3 18 18.6 18 22 18 C21.505 19.485 21.505 19.485 21 21 C21.66 21 22.32 21 23 21 C23.495 23.475 23.495 23.475 24 26 C19.43236625 24.60720622 15.28296982 22.74216134 11.0703125 20.5234375 C10.43511688 20.19332672 9.79992126 19.86321594 9.14547729 19.52310181 C7.13648152 18.47783734 5.13072039 17.42653337 3.125 16.375 C1.75541833 15.66105535 0.38562861 14.94750964 -0.984375 14.234375 C-4.3253399 12.49418696 -7.66341954 10.74857888 -11 9 C-7.06204091 7.77580837 -4.83887763 8.51679728 -1 10 C0.71677553 7.23394361 0.71677553 7.23394361 2 4 C1.32575833 1.64539322 1.32575833 1.64539322 0 0 Z " fill="#41A569" transform="translate(118,70)"/>
<path d="M0 0 C0.66 1.32 1.32 2.64 2 4 C0.68 3.67 -0.64 3.34 -2 3 C-2 4.98 -2 6.96 -2 9 C2.04141194 9.63394697 5.9065307 10.12404452 10 10 C7.1914374 12.8085626 3.77183411 14.25801754 0.25 16 C-0.45382813 16.35578125 -1.15765625 16.7115625 -1.8828125 17.078125 C-5.85019415 19.05444151 -9.74260949 20.71475004 -14 22 C-14 21.01 -14 20.02 -14 19 C-12.68 19 -11.36 19 -10 19 C-9.67 17.02 -9.34 15.04 -9 13 C-9.66 13 -10.32 13 -11 13 C-11 12.01 -11 11.02 -11 10 C-12.65 10 -14.3 10 -16 10 C-16 10.66 -16 11.32 -16 12 C-17.65 12 -19.3 12 -21 12 C-17.12251139 8.77918285 -12.69823779 6.62514104 -8.25 4.3125 C-7.45722656 3.89677734 -6.66445312 3.48105469 -5.84765625 3.05273438 C-3.90005793 2.03200514 -1.95082551 1.0145438 0 0 Z " fill="#314B8A" transform="translate(73,80)"/>
<path d="M0 0 C6.435 2.97 6.435 2.97 13 6 C11.875 11.625 11.875 11.625 9.4375 14.8125 C8.98246094 15.41707031 8.52742188 16.02164063 8.05859375 16.64453125 C7.70925781 17.09183594 7.35992187 17.53914063 7 18 C2.85967154 16.45614871 -0.93553053 14.48971062 -4.8125 12.375 C-5.40998047 12.05015625 -6.00746094 11.7253125 -6.62304688 11.390625 C-8.08337135 10.59620849 -9.54187491 9.79844624 -11 9 C-9.68 8.67 -8.36 8.34 -7 8 C-7 8.66 -7 9.32 -7 10 C-6.01 10 -5.02 10 -4 10 C-3.67 9.34 -3.34 8.68 -3 8 C-2.67 8 -2.34 8 -2 8 C-1.67 7.34 -1.34 6.68 -1 6 C-0.34 6 0.32 6 1 6 C0.67 4.02 0.34 2.04 0 0 Z " fill="#344E92" transform="translate(145,112)"/>
<path d="M0 0 C-0.5259375 0.86625 -0.5259375 0.86625 -1.0625 1.75 C-2.16413578 4.39392586 -1.96737246 5.36171148 -1 8 C-0.67 8.66 -0.34 9.32 0 10 C0.763125 9.9175 1.52625 9.835 2.3125 9.75 C5 10 5 10 6.8125 12 C7.4003125 12.99 7.4003125 12.99 8 14 C6.989375 13.9175 5.97875 13.835 4.9375 13.75 C0.0848161 14.05810691 -1.93536018 15.44963776 -6 18 C-6.66 18 -7.32 18 -8 18 C-7.67 16.68 -7.34 15.36 -7 14 C-6.01 14 -5.02 14 -4 14 C-3.67 13.01 -3.34 12.02 -3 11 C-3.99 10.67 -4.98 10.34 -6 10 C-6 9.34 -6 8.68 -6 8 C-10.47883696 8.44703986 -10.47883696 8.44703986 -14 11 C-14.99 11.495 -14.99 11.495 -16 12 C-17.13350534 14.01669827 -17.13350534 14.01669827 -18 16 C-18.33 15.67 -18.66 15.34 -19 15 C-19.99 15.99 -20.98 16.98 -22 18 C-22 17.34 -22 16.68 -22 16 C-23.89179203 15.3185177 -23.89179203 15.3185177 -26 15 C-26.66 15.66 -27.32 16.32 -28 17 C-28.66 16.34 -29.32 15.68 -30 15 C-3.28384279 0 -3.28384279 0 0 0 Z " fill="#2AA358" transform="translate(76,107)"/>
<path d="M0 0 C3.96 0.33 7.92 0.66 12 1 C12.33 10.57 12.66 20.14 13 30 C12.34 30 11.68 30 11 30 C10.67 21.42 10.34 12.84 10 4 C7.03 3.505 7.03 3.505 4 3 C2.88134245 6.64658477 2.79629108 10.1536151 2.68359375 13.953125 C2.66281265 14.61334656 2.64203156 15.27356812 2.62062073 15.95379639 C2.55549853 18.05243015 2.49641498 20.15118372 2.4375 22.25 C2.39427921 23.67709547 2.3506638 25.10417905 2.30664062 26.53125 C2.19985589 30.02070722 2.09848434 33.51029753 2 37 C2.74765625 37.13664062 3.4953125 37.27328125 4.265625 37.4140625 C7.78411509 38.16802466 10.78485722 39.39242861 14 41 C14.33 41.99 14.66 42.98 15 44 C9.71833268 42.37487159 5.15196391 40.28976174 0 38 C0 25.46 0 12.92 0 0 Z " fill="#7BB268" transform="translate(123,24)"/>
<path d="M0 0 C1.65 0 3.3 0 5 0 C4.67 0.99 4.34 1.98 4 3 C5.98 3 7.96 3 10 3 C10.33 4.32 10.66 5.64 11 7 C12.65 7 14.3 7 16 7 C16.6875 8.625 16.6875 8.625 17 11 C15.5625 14.25 15.5625 14.25 14 17 C4.0051474 14.4206832 4.0051474 14.4206832 1.6015625 11.0234375 C0.6279574 8.37253253 0 5.83640216 0 3 C0.33 2.67 0.66 2.34 1 2 C0.67 1.34 0.34 0.68 0 0 Z " fill="#62BB48" transform="translate(93,143)"/>
<path d="M0 0 C0.928125 0.28875 1.85625 0.5775 2.8125 0.875 C4.41444614 1.23907867 6.01881583 1.59259838 7.625 1.9375 C9.02094918 2.24948212 10.41682165 2.56180856 11.8125 2.875 C12.9375 8.625 12.9375 8.625 11.8125 10.875 C3.8152894 12.44822176 3.8152894 12.44822176 -0.1875 9.875 C-1.239375 9.7203125 -1.239375 9.7203125 -2.3125 9.5625 C-4.1875 8.875 -4.1875 8.875 -5.4375 6.3125 C-5.685 5.508125 -5.9325 4.70375 -6.1875 3.875 C-2.88228908 -0.16470223 -2.88228908 -0.16470223 0 0 Z " fill="#15A24A" transform="translate(128.1875,77.125)"/>
<path d="M0 0 C0.99 0.33 1.98 0.66 3 1 C2.67 2.65 2.34 4.3 2 6 C3.65 6 5.3 6 7 6 C7 6.66 7 7.32 7 8 C7.66 8 8.32 8 9 8 C9.33 8.99 9.66 9.98 10 11 C10 10.01 10 9.02 10 8 C9.34 7.34 8.68 6.68 8 6 C8.33 5.34 8.66 4.68 9 4 C9.66 4 10.32 4 11 4 C11 4.66 11 5.32 11 6 C11.66 6 12.32 6 13 6 C13 6.99 13 7.98 13 9 C14.65 9 16.3 9 18 9 C18.33 11.31 18.66 13.62 19 16 C18.01 16.33 17.02 16.66 16 17 C16 16.34 16 15.68 16 15 C14.1128125 14.8453125 14.1128125 14.8453125 12.1875 14.6875 C8.62221973 14.25118948 7.43418741 13.64585588 5 11 C2.69011685 10.25613932 0.35684056 9.57809297 -2 9 C-2.6875 6.75 -2.6875 6.75 -3 4 C-1.5625 1.6875 -1.5625 1.6875 0 0 Z " fill="#13A04A" transform="translate(76,107)"/>
<path d="M0 0 C0.70125 0.07863281 1.4025 0.15726563 2.125 0.23828125 C5.7754257 1.11286241 8.39154451 5.07904451 11 7.6875 C10.01 8.6775 9.02 9.6675 8 10.6875 C8 10.0275 8 9.3675 8 8.6875 C7.34 8.6875 6.68 8.6875 6 8.6875 C6 9.6775 6 10.6675 6 11.6875 C4.01432292 11.65494792 2.02864583 11.62239583 0.04296875 11.58984375 C-2.20305461 11.60486783 -2.20305461 11.60486783 -5 12.6875 C-4.814375 11.759375 -4.62875 10.83125 -4.4375 9.875 C-3.75876119 6.67406229 -3.75876119 6.67406229 -5 3.6875 C-5.66 3.6875 -6.32 3.6875 -7 3.6875 C-6.67 2.6975 -6.34 1.7075 -6 0.6875 C-3.63106495 -0.49696753 -2.5933174 -0.31939755 0 0 Z " fill="#64BB4A" transform="translate(81,134.3125)"/>
<path d="M0 0 C0 0.66 0 1.32 0 2 C1.32 2.33 2.64 2.66 4 3 C3.34 4.32 2.68 5.64 2 7 C1.01 7 0.02 7 -1 7 C-1.99 8.485 -1.99 8.485 -3 10 C-4.91015625 10.66015625 -4.91015625 10.66015625 -7.0625 11.0625 C-9.17489972 11.42605701 -9.17489972 11.42605701 -11 12 C-11.33 12.66 -11.66 13.32 -12 14 C-12.66 13.67 -13.32 13.34 -14 13 C-14 12.34 -14 11.68 -14 11 C-14.66 10.67 -15.32 10.34 -16 10 C-15.13375 9.1646875 -15.13375 9.1646875 -14.25 8.3125 C-11.94234122 6.03352983 -11.94234122 6.03352983 -10 3.375 C-6.87621289 -0.33449719 -4.69194635 -1.67569513 0 0 Z " fill="#11A147" transform="translate(70,115)"/>
<path d="M0 0 C0.33 0 0.66 0 1 0 C1 20.13 1 40.26 1 61 C-8.9 65.95 -8.9 65.95 -19 71 C-19.33 69.68 -19.66 68.36 -20 67 C-17.29120665 65.64560332 -14.99066732 65.93498549 -12 66 C-11.34 64.68 -10.68 63.36 -10 62 C-9.01 62 -8.02 62 -7 62 C-7 60.68 -7 59.36 -7 58 C-5.35 58 -3.7 58 -2 58 C-0.98454234 54.95362701 -0.8458023 52.80222902 -0.79467773 49.6105957 C-0.77473251 48.50968094 -0.75478729 47.40876617 -0.73423767 46.27449036 C-0.71752518 45.08691635 -0.70081268 43.89934235 -0.68359375 42.67578125 C-0.66281265 41.45924362 -0.64203156 40.24270599 -0.62062073 38.98930359 C-0.55515283 35.09709404 -0.49625285 31.20481615 -0.4375 27.3125 C-0.39431218 24.67642518 -0.3506978 22.04035731 -0.30664062 19.40429688 C-0.19947422 12.93627049 -0.09770255 6.46817589 0 0 Z " fill="#309658" transform="translate(59,14)"/>
<path d="M0 0 C3.7602985 0.58107632 6.53035032 1.65199496 9.8125 3.5625 C10.60269531 4.01753906 11.39289063 4.47257812 12.20703125 4.94140625 C12.79871094 5.29074219 13.39039063 5.64007813 14 6 C13.34 6.66 12.68 7.32 12 8 C9.8359375 7.9765625 9.8359375 7.9765625 7.375 7.625 C6.55773437 7.51414062 5.74046875 7.40328125 4.8984375 7.2890625 C3.95871094 7.14597656 3.95871094 7.14597656 3 7 C3.33 8.32 3.66 9.64 4 11 C1.4296875 12.2109375 1.4296875 12.2109375 -2 13 C-4.58520512 11.99300666 -6.55662 11.05169538 -8.875 9.625 C-9.46796875 9.28210938 -10.0609375 8.93921875 -10.671875 8.5859375 C-12.12523906 7.74204869 -13.56418738 6.87341717 -15 6 C-12.92446352 5.4465236 -11.15634036 5 -9 5 C-9 5.66 -9 6.32 -9 7 C-7.68 7.33 -6.36 7.66 -5 8 C-5 8.66 -5 9.32 -5 10 C-2.80882227 9.17798016 -2.80882227 9.17798016 -2.1484375 6.93359375 C-1.89320312 6.10988281 -1.63796875 5.28617187 -1.375 4.4375 C-1.11460938 3.61121094 -0.85421875 2.78492187 -0.5859375 1.93359375 C-0.39257812 1.29550781 -0.19921875 0.65742187 0 0 Z " fill="#2F4C93" transform="translate(119,99)"/>
<path d="M0 0 C0.33 0 0.66 0 1 0 C1.33 26.73 1.66 53.46 2 81 C4.64 82.32 7.28 83.64 10 85 C8.515 85.495 8.515 85.495 7 86 C6.34 85.67 5.68 85.34 5 85 C4.67 85.99 4.34 86.98 4 88 C3.896875 87.38125 3.79375 86.7625 3.6875 86.125 C3.12474627 83.63473516 3.12474627 83.63473516 0 82 C-0.28640158 79.33769967 -0.37839379 76.90883447 -0.34057617 74.24560547 C-0.34101425 73.44552063 -0.34145233 72.64543579 -0.34190369 71.82110596 C-0.33980923 69.16955382 -0.31644771 66.51862953 -0.29296875 63.8671875 C-0.28737512 62.03158921 -0.28310392 60.19598645 -0.28010559 58.36038208 C-0.26863844 53.52365809 -0.23915527 48.68720337 -0.20599365 43.85058594 C-0.17533298 38.91735477 -0.16160883 33.98408019 -0.14648438 29.05078125 C-0.11428729 19.36706904 -0.06306845 9.68355689 0 0 Z " fill="#344C82" transform="translate(85,0)"/>
<path d="M0 0 C-1.01755741 2.66130399 -1.66684861 3.80516056 -4.1640625 5.265625 C-5.38222656 5.75289062 -5.38222656 5.75289062 -6.625 6.25 C-7.44226563 6.58515625 -8.25953125 6.9203125 -9.1015625 7.265625 C-10.04128906 7.62914063 -10.04128906 7.62914063 -11 8 C-11 8.99 -11 9.98 -11 11 C-6.16015513 11.9298776 -2.32162036 12.4287017 2.3125 10.5 C6.00866558 8.99647502 6.5175637 8.8315004 10 10 C8.27149655 10.79311367 6.54216646 11.5844259 4.8125 12.375 C3.36810547 13.03628906 3.36810547 13.03628906 1.89453125 13.7109375 C0.93933594 14.13632813 -0.01585937 14.56171875 -1 15 C-1.86238281 15.38414063 -2.72476562 15.76828125 -3.61328125 16.1640625 C-6 17 -6 17 -10 17 C-12.66590937 12.44573816 -13.31563182 9.26053037 -13 4 C-11.2097939 3.32942113 -9.41778511 2.6636531 -7.625 2 C-6.62726562 1.62875 -5.62953125 1.2575 -4.6015625 0.875 C-2 0 -2 0 0 0 Z " fill="#89C278" transform="translate(13,58)"/>
<path d="M0 0 C1.65 0.66 3.3 1.32 5 2 C4.42365861 6.75481646 2.44931479 9.97048212 0 14 C-3.69659593 13.42167939 -6.41904093 12.41354556 -9.64453125 10.53125 C-10.48564453 10.04269531 -11.32675781 9.55414063 -12.19335938 9.05078125 C-13.05767578 8.53902344 -13.92199219 8.02726563 -14.8125 7.5 C-15.69615234 6.98824219 -16.57980469 6.47648438 -17.49023438 5.94921875 C-22.26134983 3.1565504 -22.26134983 3.1565504 -24 2 C-24 1.67 -24 1.34 -24 1 C-22.35 1 -20.7 1 -19 1 C-19 1.66 -19 2.32 -19 3 C-16.69 3.33 -14.38 3.66 -12 4 C-11.67 4.99 -11.34 5.98 -11 7 C-7.48809191 8.22969878 -7.48809191 8.22969878 -4 9 C-4 9.66 -4 10.32 -4 11 C-3.01 10.67 -2.02 10.34 -1 10 C-1.020625 9.278125 -1.04125 8.55625 -1.0625 7.8125 C-1.00179441 5.08074862 -0.60741465 2.65743909 0 0 Z " fill="#4FAD75" transform="translate(131,133)"/>
<path d="M0 0 C1.32 0.33 2.64 0.66 4 1 C3.67 25.09 3.34 49.18 3 74 C2.67 74 2.34 74 2 74 C1.98969254 73.2446698 1.97938507 72.4893396 1.96876526 71.71112061 C1.87075053 64.58967618 1.76823047 57.46831756 1.66066074 50.34701157 C1.60551798 46.68596092 1.55211201 43.02490217 1.50268555 39.36376953 C1.45491418 35.82998084 1.40256713 32.29628673 1.34705925 28.76261139 C1.31678829 26.75965338 1.29124507 24.75662573 1.26576233 22.75360107 C1.24581711 21.53263733 1.22587189 20.31167358 1.20532227 19.05371094 C1.18977798 17.97893494 1.1742337 16.90415894 1.15821838 15.79681396 C1.02035426 13.35980065 0.65136801 11.33611555 0 9 C-0.06548492 7.41788427 -0.08578381 5.83329919 -0.0625 4.25 C-0.05347656 3.45078125 -0.04445313 2.6515625 -0.03515625 1.828125 C-0.02355469 1.22484375 -0.01195313 0.6215625 0 0 Z " fill="#304D8D" transform="translate(73,0)"/>
<path d="M0 0 C4.73789165 1.44323469 8.98858151 3.37226733 13.375 5.625 C14.01566406 5.94984375 14.65632812 6.2746875 15.31640625 6.609375 C16.87947501 7.40257407 18.44000622 8.20077031 20 9 C16.23023755 10.1445351 14.6056351 9.5716871 11 8 C10.01 8 9.02 8 8 8 C7.01 9.485 7.01 9.485 6 11 C5.34 11 4.68 11 4 11 C4 11.66 4 12.32 4 13 C2.68 12.67 1.36 12.34 0 12 C0 9 0 9 1.125 6.5625 C2.29287234 4.03211458 2.29287234 4.03211458 1.125 1.6875 C0.75375 1.130625 0.3825 0.57375 0 0 Z " fill="#22A552" transform="translate(118,70)"/>
<path d="M0 0 C6.23809641 3.00400134 12.20978654 6.19916156 18 10 C16.77472971 14.05281712 15.30119506 17.44360764 13 21 C8.80639551 20.32902328 5.59665648 18.1441606 2 16 C2.66 15.67 3.32 15.34 4 15 C6.03144641 15.93446535 8.03533587 16.93224776 10 18 C12.45579697 14.31435916 12.45579697 14.31435916 13 10 C11.35 9.67 9.7 9.34 8 9 C7.67 7.68 7.34 6.36 7 5 C5.02 5 3.04 5 1 5 C0.67 3.35 0.34 1.7 0 0 Z " fill="#7DBD69" transform="translate(96,141)"/>
<path d="M0 0 C3.63 0 7.26 0 11 0 C11.33 19.14 11.66 38.28 12 58 C13.98 58.99 15.96 59.98 18 61 C17.01 61.66 16.02 62.32 15 63 C15 62.34 15 61.68 15 61 C13.35 60.67 11.7 60.34 10 60 C10 40.86 10 21.72 10 2 C6.37 2 2.74 2 -1 2 C-0.67 1.34 -0.34 0.68 0 0 Z " fill="#52A676" transform="translate(100,8)"/>
<path d="M0 0 C1.125 3.75 1.125 3.75 0 6 C-0.35613097 7.66194453 -0.69208308 9.328451 -1 11 C-1.99 11 -2.98 11 -4 11 C-4.66 10.34 -5.32 9.68 -6 9 C-7.98356483 8.28591666 -9.98315437 7.61382258 -12 7 C-12 6.01 -12 5.02 -12 4 C-4.71428571 -0.57142857 -4.71428571 -0.57142857 0 0 Z " fill="#13A149" transform="translate(131,133)"/>
<path d="M0 0 C0.33 1.32 0.66 2.64 1 4 C2.65 4.33 4.3 4.66 6 5 C5.67 5.66 5.34 6.32 5 7 C2.4375 7.625 2.4375 7.625 0 8 C-0.33 9.32 -0.66 10.64 -1 12 C-3.4375 11.625 -3.4375 11.625 -6 11 C-7.35439668 8.29120665 -7.06501451 5.99066732 -7 3 C-4.69 2.01 -2.38 1.02 0 0 Z " fill="#364F8C" transform="translate(11,117)"/>
<path d="M0 0 C-1.30722838 3.92168514 -3.38141513 5.19070756 -7 7 C-8.13350534 9.01669827 -8.13350534 9.01669827 -9 11 C-9.33 10.67 -9.66 10.34 -10 10 C-10.99 10.99 -11.98 11.98 -13 13 C-13 12.34 -13 11.68 -13 11 C-14.89179203 10.3185177 -14.89179203 10.3185177 -17 10 C-17.66 10.66 -18.32 11.32 -19 12 C-19.66 11.34 -20.32 10.68 -21 10 C-18.06830554 8.32296194 -15.12875476 6.66020482 -12.1875 5 C-11.35412109 4.52304688 -10.52074219 4.04609375 -9.66210938 3.5546875 C-8.85966797 3.10351562 -8.05722656 2.65234375 -7.23046875 2.1875 C-6.49207764 1.76855469 -5.75368652 1.34960938 -4.99291992 0.91796875 C-3 0 -3 0 0 0 Z " fill="#2CA25A" transform="translate(67,112)"/>
<path d="M0 0 C-0.625 2.375 -0.625 2.375 -2 5 C-5.125 6.3125 -5.125 6.3125 -8 7 C-7.67 8.65 -7.34 10.3 -7 12 C-8.32 12 -9.64 12 -11 12 C-11 11.34 -11 10.68 -11 10 C-12.95894361 10.11306697 -12.95894361 10.11306697 -15 11 C-16.29660434 13.49034386 -16.29660434 13.49034386 -17 16 C-17.99 15.67 -18.98 15.34 -20 15 C-20.33 14.01 -20.66 13.02 -21 12 C-18.61885822 9.98518772 -16.90020929 8.97006279 -13.875 8.0625 C-10.88601326 7.33548406 -10.88601326 7.33548406 -10.0625 5.0625 C-8.23427951 1.51360141 -3.90744852 0 0 0 Z " fill="#64B94B" transform="translate(22,54)"/>
<path d="M0 0 C0.33 0.66 0.66 1.32 1 2 C0.67 2.66 0.34 3.32 0 4 C-0.99 4 -1.98 4 -3 4 C-3.185625 4.61875 -3.37125 5.2375 -3.5625 5.875 C-5.71437233 9.05602866 -8.37533763 9.19451947 -12 10 C-12.33 11.32 -12.66 12.64 -13 14 C-13.66 12.02 -14.32 10.04 -15 8 C-10.05 5.36 -5.1 2.72 0 0 Z " fill="#465D8E" transform="translate(16,110)"/>
<path d="M0 0 C0.99 0.33 1.98 0.66 3 1 C1.54494569 4.39512672 -0.07968259 6.71110257 -3 9 C-6.75 9.75 -6.75 9.75 -10 10 C-9.67 10.99 -9.34 11.98 -9 13 C-9.66 13 -10.32 13 -11 13 C-11 12.34 -11 11.68 -11 11 C-12.65 11 -14.3 11 -16 11 C-13.10414095 8.70351643 -10.1827969 6.95652443 -6.875 5.3125 C-6.00617187 4.87550781 -5.13734375 4.43851562 -4.2421875 3.98828125 C-2 3 -2 3 0 3 C0 2.01 0 1.02 0 0 Z " fill="#28A05A" transform="translate(49,63)"/>
<path d="M0 0 C0.33 0.99 0.66 1.98 1 3 C1.556875 2.835 2.11375 2.67 2.6875 2.5 C5.1818815 1.96067427 7.4566261 2 10 2 C10.33 1.67 10.66 1.34 11 1 C12.99958364 0.95919217 15.00045254 0.95745644 17 1 C13.5494537 3.83188775 9.74037641 5.74503018 5.75 7.6875 C5.1003125 8.00783203 4.450625 8.32816406 3.78125 8.65820312 C2.18930243 9.44247141 0.59489471 10.22174255 -1 11 C-1 10.01 -1 9.02 -1 8 C0.65 7.34 2.3 6.68 4 6 C2.68 5.34 1.36 4.68 0 4 C0 2.68 0 1.36 0 0 Z " fill="#465C94" transform="translate(12,117)"/>
<path d="M0 0 C2.64 1.32 5.28 2.64 8 4 C7.67 4.99 7.34 5.98 7 7 C6.34 7 5.68 7 5 7 C4.54625 7.94875 4.0925 8.8975 3.625 9.875 C2 13 2 13 0 15 C-1.32 14.01 -2.64 13.02 -4 12 C-2.68 12 -1.36 12 0 12 C-0.33 11.01 -0.66 10.02 -1 9 C-0.01 8.01 0.98 7.02 2 6 C1.34 4.02 0.68 2.04 0 0 Z " fill="#3A5390" transform="translate(102,89)"/>
<path d="M0 0 C0 3 0 3 -1.5 4.6875 C-1.995 5.120625 -2.49 5.55375 -3 6 C-2.05270463 8.15811388 -2.05270463 8.15811388 0 10 C2.75372909 10.36933645 5.20365661 10.18336678 8 10 C4.79663178 12.83374881 2.21912747 13.5205537 -2 14 C-2.67408308 12.73308493 -3.33900497 11.46129251 -4 10.1875 C-4.37125 9.47980469 -4.7425 8.77210938 -5.125 8.04296875 C-6 6 -6 6 -6 3 C-4.02 2.01 -2.04 1.02 0 0 Z " fill="#7CB767" transform="translate(52,145)"/>
<path d="M0 0 C0.33 0 0.66 0 1 0 C1 1.65 1 3.3 1 5 C-0.98 5.33 -2.96 5.66 -5 6 C-5 6.66 -5 7.32 -5 8 C-9.06657102 11.93539131 -13.84317681 13.88783712 -19 16 C-19 14.68 -19 13.36 -19 12 C-16.29120665 10.64560332 -13.99066732 10.93498549 -11 11 C-10.34 9.68 -9.68 8.36 -9 7 C-8.01 7 -7.02 7 -6 7 C-6 5.68 -6 4.36 -6 3 C-4.35 3 -2.7 3 -1 3 C-0.67 2.01 -0.34 1.02 0 0 Z " fill="#19A14F" transform="translate(58,69)"/>
<path d="M0 0 C2.475 0.99 2.475 0.99 5 2 C4.42365861 6.75481646 2.44931479 9.97048212 0 14 C-0.99 14 -1.98 14 -3 14 C-3.33 13.01 -3.66 12.02 -4 11 C-3.01 10.67 -2.02 10.34 -1 10 C-1.0309375 8.9171875 -1.0309375 8.9171875 -1.0625 7.8125 C-1.00179441 5.08074862 -0.60741465 2.65743909 0 0 Z " fill="#46A86C" transform="translate(131,133)"/>
<path d="M0 0 C0.99 0 1.98 0 3 0 C2.54300722 5.02692063 0.00758252 8.14896261 -3 12 C-5.475 11.01 -5.475 11.01 -8 10 C-7.67 9.01 -7.34 8.02 -7 7 C-5.02 7.495 -5.02 7.495 -3 8 C-3 7.01 -3 6.02 -3 5 C-2.01 5 -1.02 5 0 5 C0 3.35 0 1.7 0 0 Z " fill="#536794" transform="translate(155,118)"/>
<path d="M0 0 C1.875 2 1.875 2 3 4 C1.989375 3.9175 0.97875 3.835 -0.0625 3.75 C-4.9151839 4.05810691 -6.93536018 5.44963776 -11 8 C-11.66 8 -12.32 8 -13 8 C-12.67 6.68 -12.34 5.36 -12 4 C-11.01 4 -10.02 4 -9 4 C-8.67 3.01 -8.34 2.02 -8 1 C-5.17116253 -0.41441874 -3.12623255 -0.31900332 0 0 Z " fill="#37A566" transform="translate(81,117)"/>
<path d="M0 0 C3.465 1.485 3.465 1.485 7 3 C6.360625 3.226875 5.72125 3.45375 5.0625 3.6875 C2.72806339 4.85250896 2.72806339 4.85250896 2.25 7.625 C2.1675 8.40875 2.085 9.1925 2 10 C-0.31 10.66 -2.62 11.32 -5 12 C-5.66 11.34 -6.32 10.68 -7 10 C-6.195625 9.731875 -5.39125 9.46375 -4.5625 9.1875 C-3.716875 8.795625 -2.87125 8.40375 -2 8 C-1.67 7.01 -1.34 6.02 -1 5 C-0.34 5 0.32 5 1 5 C0.67 3.35 0.34 1.7 0 0 Z " fill="#304B8D" transform="translate(133,106)"/>
<path d="M0 0 C-0.48578543 3.12290635 -0.9986012 5.99580359 -2 9 C-2.99 9.33 -3.98 9.66 -5 10 C-5.33 9.01 -5.66 8.02 -6 7 C-7.06645115 5.70366379 -7.06645115 5.70366379 -9.5625 5.9375 C-10.366875 5.958125 -11.17125 5.97875 -12 6 C-8.59780735 3.25207517 -4.51535412 0 0 0 Z " fill="#39518E" transform="translate(39,99)"/>
<path d="M0 0 C3.40312738 1.05875074 6.01353231 2.00902154 9 4 C8.39301257 8.12751449 6.96189209 11.3321148 5 15 C3.35 15 1.7 15 0 15 C1.32 14.67 2.64 14.34 4 14 C4 12.35 4 10.7 4 9 C4.99 8.67 5.98 8.34 7 8 C6.67 6.68 6.34 5.36 6 4 C4.35 3.67 2.7 3.34 1 3 C0.67 2.01 0.34 1.02 0 0 Z " fill="#65B78A" transform="translate(150,86)"/>
<path d="M0 0 C2 3 2 3 2 6 C2.66 5.01 3.32 4.02 4 3 C4.99 3.33 5.98 3.66 7 4 C6.67 5.32 6.34 6.64 6 8 C3.8125 8.75 3.8125 8.75 1 9 C-1.8125 7.0625 -1.8125 7.0625 -4 5 C-3 2 -3 2 0 0 Z " fill="#11A047" transform="translate(42,127)"/>
<path d="M0 0 C0 0.99 0 1.98 0 3 C-1.093125 2.773125 -2.18625 2.54625 -3.3125 2.3125 C-6.90531273 1.59853617 -6.90531273 1.59853617 -8.9375 3.4375 C-9.288125 3.953125 -9.63875 4.46875 -10 5 C-9.34 5.33 -8.68 5.66 -8 6 C-11.3 6 -14.6 6 -18 6 C-7.53846154 -1.84615385 -7.53846154 -1.84615385 0 0 Z " fill="#83BC71" transform="translate(84,133)"/>
<path d="M0 0 C0.66 0.33 1.32 0.66 2 1 C1.67 3.31 1.34 5.62 1 8 C4.465 9.485 4.465 9.485 8 11 C6 13 6 13 3.375 13.125 C2.59125 13.08375 1.8075 13.0425 1 13 C0.32332002 11.75539217 -0.34094719 10.50403104 -1 9.25 C-1.37125 8.55390625 -1.7425 7.8578125 -2.125 7.140625 C-3 5 -3 5 -3 1 C-2.01 0.67 -1.02 0.34 0 0 Z " fill="#63B281" transform="translate(3,88)"/>
<path d="M0 0 C2.64 0.33 5.28 0.66 8 1 C8 1.66 8 2.32 8 3 C9.32 3 10.64 3 12 3 C12.33 3.99 12.66 4.98 13 6 C14.65 6.33 16.3 6.66 18 7 C16.453125 8.2421875 16.453125 8.2421875 14 9 C11.37987917 7.82035284 9.16046994 6.63889271 6.75 5.125 C6.1003125 4.73441406 5.450625 4.34382813 4.78125 3.94140625 C3.17879948 2.97522285 1.58819707 1.98943828 0 1 C0 0.67 0 0.34 0 0 Z " fill="#4AAA6E" transform="translate(84,121)"/>
<path d="M0 0 C-0.33 0.99 -0.66 1.98 -1 3 C-1.66 3 -2.32 3 -3 3 C-3 3.66 -3 4.32 -3 5 C-7.62197306 7.21854707 -10.76824163 8.38281159 -16 8 C-13.10414095 5.70351643 -10.1827969 3.95652443 -6.875 2.3125 C-5.57175781 1.65701172 -5.57175781 1.65701172 -4.2421875 0.98828125 C-2 0 -2 0 0 0 Z " fill="#49AC71" transform="translate(21,80)"/>
<path d="M0 0 C1.32 0.66 2.64 1.32 4 2 C1.56876731 3.36663387 -0.86886163 4.7183867 -3.3125 6.0625 C-4.00279297 6.45244141 -4.69308594 6.84238281 -5.40429688 7.24414062 C-7.22925688 8.24037483 -9.11273877 9.12752842 -11 10 C-11.99 9.67 -12.98 9.34 -14 9 C-11 7 -11 7 -9 7 C-8.67 6.01 -8.34 5.02 -8 4 C-5.67793475 3.29508733 -3.34406932 2.62787571 -1 2 C-0.67 1.34 -0.34 0.68 0 0 Z " fill="#41A66B" transform="translate(49,132)"/>
<path d="M0 0 C0 0.66 0 1.32 0 2 C-0.99 2 -1.98 2 -3 2 C-3 2.66 -3 3.32 -3 4 C-2.34 4.66 -1.68 5.32 -1 6 C-4.25 7.1875 -4.25 7.1875 -8 8 C-10.234375 6.55078125 -10.234375 6.55078125 -12 5 C-10.37750059 4.16180842 -8.75191503 3.3295884 -7.125 2.5 C-6.22007813 2.0359375 -5.31515625 1.571875 -4.3828125 1.09375 C-2 0 -2 0 0 0 Z " fill="#76B962" transform="translate(66,139)"/>
<path d="M0 0 C-0.33 1.32 -0.66 2.64 -1 4 C-2.1446875 4.2165625 -2.1446875 4.2165625 -3.3125 4.4375 C-6.08172908 4.9632594 -6.08172908 4.9632594 -9 6 C-9.33 6.99 -9.66 7.98 -10 9 C-11.65 8.67 -13.3 8.34 -15 8 C-12.23612808 5.84821844 -9.43466931 4.01629579 -6.375 2.3125 C-5.59898438 1.87550781 -4.82296875 1.43851562 -4.0234375 0.98828125 C-2 0 -2 0 0 0 Z " fill="#42A46A" transform="translate(42,125)"/>
<path d="M0 0 C2.64 0.33 5.28 0.66 8 1 C8 1.66 8 2.32 8 3 C12.15652053 3.87505695 14.90040469 4.09322542 19 3 C18.67 4.32 18.34 5.64 18 7 C13.3595511 7.41947561 10.33054173 6.0087475 6.1875 4 C5.02605469 3.443125 3.86460937 2.88625 2.66796875 2.3125 C1.34732422 1.6628125 1.34732422 1.6628125 0 1 C0 0.67 0 0.34 0 0 Z " fill="#95C885" transform="translate(138,68)"/>
<path d="M0 0 C3.34373475 0.55728913 6.03312999 1.35173889 9 3 C8.67 5.31 8.34 7.62 8 10 C7.67 10 7.34 10 7 10 C6.67 8.35 6.34 6.7 6 5 C4.02 4.34 2.04 3.68 0 3 C0 2.01 0 1.02 0 0 Z " fill="#88C578" transform="translate(150,60)"/>
<path d="M0 0 C0.88935377 3.303314 1.46274105 6.62294375 2 10 C0.02 10 -1.96 10 -4 10 C-5.125 6.25 -5.125 6.25 -4 4 C-3.01 4 -2.02 4 -1 4 C-0.67 2.68 -0.34 1.36 0 0 Z " fill="#203F89" transform="translate(17,110)"/>
<path d="M0 0 C1.32 0.33 2.64 0.66 4 1 C3.67 1.99 3.34 2.98 3 4 C3.66 4 4.32 4 5 4 C5.33 4.66 5.66 5.32 6 6 C5.01 6 4.02 6 3 6 C3 6.66 3 7.32 3 8 C0.03 7.505 0.03 7.505 -3 7 C-2.01 4.69 -1.02 2.38 0 0 Z " fill="#11A048" transform="translate(103,123)"/>
<path d="M0 0 C1.32 0 2.64 0 4 0 C4 0.66 4 1.32 4 2 C4.99 2 5.98 2 7 2 C7.33 1.34 7.66 0.68 8 0 C8.433125 0.61875 8.86625 1.2375 9.3125 1.875 C10.99740483 4.2197245 10.99740483 4.2197245 14 6 C11 7 11 7 8.30078125 5.78515625 C7.31464844 5.21667969 6.32851562 4.64820312 5.3125 4.0625 C4.31863281 3.49660156 3.32476562 2.93070312 2.30078125 2.34765625 C1.54152344 1.90292969 0.78226563 1.45820312 0 1 C0 0.67 0 0.34 0 0 Z " fill="#405389" transform="translate(134,120)"/>
<path d="M0 0 C2.97 0 5.94 0 9 0 C9 1.32 9 2.64 9 4 C9.66 4 10.32 4 11 4 C11.33 4.99 11.66 5.98 12 7 C7.69235185 5.43358249 3.93828536 3.31663844 0 1 C0 0.67 0 0.34 0 0 Z " fill="#7BBC68" transform="translate(79,145)"/>
<path d="M0 0 C0.66 0.66 1.32 1.32 2 2 C-0.12232979 3.17176518 -2.24757791 4.33754785 -4.375 5.5 C-4.97828125 5.83386719 -5.5815625 6.16773438 -6.203125 6.51171875 C-10.7734375 9 -10.7734375 9 -13 9 C-13 8.34 -13 7.68 -13 7 C-10 5 -10 5 -7 5 C-7 4.34 -7 3.68 -7 3 C-4.69 2.01 -2.38 1.02 0 0 Z " fill="#41A467" transform="translate(66,124)"/>
<path d="M0 0 C0 0.66 0 1.32 0 2 C0.66 2 1.32 2 2 2 C1.34 3.65 0.68 5.3 0 7 C-0.33 6.34 -0.66 5.68 -1 5 C-2.91666667 4.16666667 -2.91666667 4.16666667 -5 4 C-5.66 4.66 -6.32 5.32 -7 6 C-7.66 5.34 -8.32 4.68 -9 4 C-2.25 0 -2.25 0 0 0 Z " fill="#3EAE6C" transform="translate(55,118)"/>
<path d="M0 0 C1.98 0 3.96 0 6 0 C5.67 1.98 5.34 3.96 5 6 C3.68 6 2.36 6 1 6 C1 5.34 1 4.68 1 4 C0.34 4 -0.32 4 -1 4 C-0.67 2.68 -0.34 1.36 0 0 Z " fill="#24418A" transform="translate(97,95)"/>
<path d="M0 0 C5.75 -0.125 5.75 -0.125 8 1 C8 1.66 8 2.32 8 3 C5.36 3.33 2.72 3.66 0 4 C0 2.68 0 1.36 0 0 Z " fill="#18A14E" transform="translate(5,88)"/>
<path d="M0 0 C0.33 0.66 0.66 1.32 1 2 C0.67 2.66 0.34 3.32 0 4 C-0.99 4 -1.98 4 -3 4 C-3.66 5.32 -4.32 6.64 -5 8 C-5.66 8 -6.32 8 -7 8 C-7.33 6.68 -7.66 5.36 -8 4 C-5.36 2.68 -2.72 1.36 0 0 Z " fill="#415794" transform="translate(16,110)"/>
<path d="M0 0 C1.98 0 3.96 0 6 0 C6 0.66 6 1.32 6 2 C7.32 2.33 8.64 2.66 10 3 C10 3.66 10 4.32 10 5 C11.32 5.33 12.64 5.66 14 6 C13.67 6.66 13.34 7.32 13 8 C8.71 5.69 4.42 3.38 0 1 C0 0.67 0 0.34 0 0 Z " fill="#394D7E" transform="translate(104,104)"/>
<path d="M0 0 C0.66 0.33 1.32 0.66 2 1 C1.67 1.66 1.34 2.32 1 3 C0.01 3.33 -0.98 3.66 -2 4 C-2.680625 4.804375 -2.680625 4.804375 -3.375 5.625 C-3.91125 6.07875 -4.4475 6.5325 -5 7 C-7.6875 6.6875 -7.6875 6.6875 -10 6 C-6.87511433 3.47605388 -3.68685613 1.60298093 0 0 Z " fill="#50B073" transform="translate(31,74)"/>
<path d="M0 0 C4.50802601 1.25805377 7.4912812 2.90407165 11 6 C8.75 6.75 8.75 6.75 6 7 C3.8125 5.125 3.8125 5.125 2 3 C1.34 2.67 0.68 2.34 0 2 C0 1.34 0 0.68 0 0 Z " fill="#80C06D" transform="translate(85,135)"/>
<path d="M0 0 C0.78375 0.04125 1.5675 0.0825 2.375 0.125 C2.375 1.445 2.375 2.765 2.375 4.125 C0.395 4.455 -1.585 4.785 -3.625 5.125 C-3.955 4.135 -4.285 3.145 -4.625 2.125 C-2.625 0.125 -2.625 0.125 0 0 Z " fill="#214291" transform="translate(152.625,118.875)"/>
<path d="M0 0 C0.99 0 1.98 0 3 0 C2 3 2 3 0.22265625 4.16796875 C-0.49019531 4.50441406 -1.20304687 4.84085937 -1.9375 5.1875 C-3.00291016 5.70376953 -3.00291016 5.70376953 -4.08984375 6.23046875 C-6 7 -6 7 -8 7 C-8 6.34 -8 5.68 -8 5 C-7.01 5 -6.02 5 -5 5 C-5 4.34 -5 3.68 -5 3 C-3.35 2.67 -1.7 2.34 0 2 C0 1.34 0 0.68 0 0 Z " fill="#45598F" transform="translate(42,108)"/>
<path d="M0 0 C0.99 0.66 1.98 1.32 3 2 C-2.445 4.475 -2.445 4.475 -8 7 C-8 5.68 -8 4.36 -8 3 C-5.29120665 1.64560332 -2.99066732 1.93498549 0 2 C0 1.34 0 0.68 0 0 Z " fill="#3CA567" transform="translate(47,78)"/>
<path d="M0 0 C4.23429756 1.31061591 8.07407404 2.94356259 12 5 C9.5332355 5.88336837 8.36140628 6.1312406 5.859375 5.22265625 C5.16328125 4.83980469 4.4671875 4.45695312 3.75 4.0625 C3.04359375 3.68222656 2.3371875 3.30195312 1.609375 2.91015625 C1.07828125 2.60980469 0.5471875 2.30945313 0 2 C0 1.34 0 0.68 0 0 Z " fill="#51B176" transform="translate(126,74)"/>
<path d="M0 0 C-0.75 2.4375 -0.75 2.4375 -2 5 C-3.9375 6 -3.9375 6 -6 6 C-7.75 4.5625 -7.75 4.5625 -9 3 C-2.25 0 -2.25 0 0 0 Z " fill="#7BBE69" transform="translate(22,54)"/>
<path d="M0 0 C0 3 0 3 -1.5 4.6875 C-1.995 5.120625 -2.49 5.55375 -3 6 C-2.67 6.99 -2.34 7.98 -2 9 C-2.99 9.495 -2.99 9.495 -4 10 C-5.4606285 7.35261084 -6 6.10551666 -6 3 C-4.02 2.01 -2.04 1.02 0 0 Z " fill="#88BD76" transform="translate(52,145)"/>
<path d="M0 0 C0.33 0.99 0.66 1.98 1 3 C-0.32 3.33 -1.64 3.66 -3 4 C-3 4.66 -3 5.32 -3 6 C-4.32 6 -5.64 6 -7 6 C-7 5.01 -7 4.02 -7 3 C-4.69 2.01 -2.38 1.02 0 0 Z " fill="#214192" transform="translate(11,117)"/>
<path d="M0 0 C2.91517292 1.07401108 4.77810176 1.77810176 7 4 C4.1875 4.6875 4.1875 4.6875 1 5 C-0.875 3.5625 -0.875 3.5625 -2 2 C-1.34 2 -0.68 2 0 2 C0 1.34 0 0.68 0 0 Z " fill="#405894" transform="translate(126,102)"/>
<path d="M0 0 C2.64 0 5.28 0 8 0 C7.34 1.65 6.68 3.3 6 5 C4.68 5 3.36 5 2 5 C1 3 1 3 0 0 Z " fill="#0F9E45" transform="translate(4,91)"/>
<path d="M0 0 C1.65 0 3.3 0 5 0 C5.33 1.32 5.66 2.64 6 4 C4.35 4.33 2.7 4.66 1 5 C0.67 3.35 0.34 1.7 0 0 Z " fill="#159F49" transform="translate(151,90)"/>
<path d="M0 0 C0.99 0.66 1.98 1.32 3 2 C-1.625 5 -1.625 5 -5 5 C-5.33 3.68 -5.66 2.36 -6 1 C-3.03 1.495 -3.03 1.495 0 2 C0 1.34 0 0.68 0 0 Z " fill="#76B991" transform="translate(33,141)"/>
<path d="M0 0 C1.65 0.33 3.3 0.66 5 1 C4 3 4 3 1.6875 4.1875 C-1.11989571 5.03624754 -2.301935 4.99928333 -5 4 C-4.360625 3.71125 -3.72125 3.4225 -3.0625 3.125 C-0.84793921 2.17176549 -0.84793921 2.17176549 0 0 Z " fill="#24418C" transform="translate(12,121)"/>
<path d="M0 0 C0.66 0.66 1.32 1.32 2 2 C1 4 0 6 -1 8 C-1.433125 7.54625 -1.86625 7.0925 -2.3125 6.625 C-4.10798342 4.79975666 -4.10798342 4.79975666 -7 3 C-5.02 3 -3.04 3 -1 3 C-0.67 2.01 -0.34 1.02 0 0 Z " fill="#24428B" transform="translate(117,102)"/>
<path d="M0 0 C-1.78953185 0.83790789 -3.58169695 1.67019396 -5.375 2.5 C-6.87160156 3.19609375 -6.87160156 3.19609375 -8.3984375 3.90625 C-11 5 -11 5 -13 5 C-12 2 -12 2 -10.29296875 1.015625 C-9.59816406 0.76296875 -8.90335938 0.5103125 -8.1875 0.25 C-7.15689453 -0.14445312 -7.15689453 -0.14445312 -6.10546875 -0.546875 C-3.71856031 -1.06056958 -2.29362227 -0.76282269 0 0 Z " fill="#8EC57D" transform="translate(23,68)"/>
<path d="M0 0 C0 0.99 0 1.98 0 3 C-2.875 3.1875 -2.875 3.1875 -6 3 C-6.66 2.01 -7.32 1.02 -8 0 C-5.13822943 -1.43088528 -3.06624227 -0.59991697 0 0 Z " fill="#4BA970" transform="translate(84,106)"/>
<path d="M0 0 C0 0.99 0 1.98 0 3 C-0.66 3 -1.32 3 -2 3 C-1.67 3.99 -1.34 4.98 -1 6 C-1.66 6 -2.32 6 -3 6 C-3 5.34 -3 4.68 -3 4 C-4.65 4 -6.3 4 -8 4 C-2.7826087 0 -2.7826087 0 0 0 Z " fill="#4BB076" transform="translate(41,70)"/>
<path d="M0 0 C-0.6875 1.9375 -0.6875 1.9375 -2 4 C-4.625 4.75 -4.625 4.75 -7 5 C-7 4.01 -7 3.02 -7 2 C-2.25 0 -2.25 0 0 0 Z " fill="#80BC68" transform="translate(13,58)"/>
<path d="M0 0 C3.37462715 0.54723683 5.08235 1.0549 8 3 C6.02 3.99 6.02 3.99 4 5 C4 4.34 4 3.68 4 3 C2.68 3.33 1.36 3.66 0 4 C0 2.68 0 1.36 0 0 Z " fill="#7FC169" transform="translate(136,54)"/>
<path d="M0 0 C0.99 0.33 1.98 0.66 3 1 C2.67 1.66 2.34 2.32 2 3 C2.66 3.33 3.32 3.66 4 4 C0.7 4 -2.6 4 -6 4 C-2 1 -2 1 0 0 Z " fill="#74B964" transform="translate(72,135)"/>
<path d="M0 0 C5.75 1.75 5.75 1.75 8 4 C4.86650268 5.04449911 4.01031744 4.93423645 1 4 C0.67 2.68 0.34 1.36 0 0 Z " fill="#4CB076" transform="translate(105,119)"/>
<path d="M0 0 C1.65 0 3.3 0 5 0 C5.66 1.65 6.32 3.3 7 5 C2.25 3.125 2.25 3.125 0 2 C0 1.34 0 0.68 0 0 Z " fill="#5EB27D" transform="translate(121,141)"/>
<path d="M0 0 C-0.33 1.32 -0.66 2.64 -1 4 C-3.31 4 -5.62 4 -8 4 C-2.7826087 0 -2.7826087 0 0 0 Z " fill="#55B483" transform="translate(42,125)"/>
<path d="M0 0 C1.98 0.66 3.96 1.32 6 2 C6 2.99 6 3.98 6 5 C4.35 4.67 2.7 4.34 1 4 C0.67 2.68 0.34 1.36 0 0 Z " fill="#53B075" transform="translate(98,115)"/>
<path d="M0 0 C2.91517292 1.07401108 4.77810176 1.77810176 7 4 C5.35 3.67 3.7 3.34 2 3 C1.67 3.99 1.34 4.98 1 6 C0.4465236 3.92446352 0 2.15634036 0 0 Z " fill="#415791" transform="translate(88,82)"/>
<path d="M0 0 C1.98 0.66 3.96 1.32 6 2 C5.01 2.99 4.02 3.98 3 5 C2.01 4.67 1.02 4.34 0 4 C0 2.68 0 1.36 0 0 Z " fill="#80C46B" transform="translate(144,57)"/>
<path d="M0 0 C-0.33 0.99 -0.66 1.98 -1 3 C-3.31 3.33 -5.62 3.66 -8 4 C-3.375 0 -3.375 0 0 0 Z " fill="#50A874" transform="translate(67,112)"/>
<path d="M0 0 C5.75 1.75 5.75 1.75 8 4 C6.02 4 4.04 4 2 4 C1.34 2.68 0.68 1.36 0 0 Z " fill="#5BB680" transform="translate(150,86)"/>
<path d="M0 0 C5.75 1.75 5.75 1.75 8 4 C6.35 4.33 4.7 4.66 3 5 C3 4.34 3 3.68 3 3 C2.01 2.67 1.02 2.34 0 2 C0 1.34 0 0.68 0 0 Z " fill="#4FB176" transform="translate(142,82)"/>
<path d="M0 0 C-2.93828597 2.50298434 -5.17902761 3.46930939 -9 4 C-9 3.34 -9 2.68 -9 2 C-5.5647952 -0.29013653 -4.014669 -0.17842973 0 0 Z " fill="#7EBF72" transform="translate(36,61)"/>
</svg>
