<?xml version="1.0" encoding="UTF-8"?>
<svg version="1.1" xmlns="http://www.w3.org/2000/svg" width="350" height="293">
<path d="M0 0 C0.74483643 0.07839111 1.48967285 0.15678223 2.25708008 0.23754883 C6.8748472 0.77779909 11.12550131 1.73368816 15.5625 3.125 C15.11782911 6.58523462 14.65445887 10.04270835 14.1875 13.5 C13.99800781 14.97726563 13.99800781 14.97726563 13.8046875 16.484375 C13.61132812 17.89589844 13.61132812 17.89589844 13.4140625 19.3359375 C13.29885254 20.20524902 13.18364258 21.07456055 13.06494141 21.97021484 C12.5625 24.125 12.5625 24.125 10.5625 26.125 C8.15448105 25.93673118 5.8763359 25.64061127 3.5 25.25 C-2.53129818 24.385325 -8.46796032 23.87021726 -14.5625 23.8125 C-15.25996338 23.79525879 -15.95742676 23.77801758 -16.67602539 23.76025391 C-21.3402548 23.76363746 -24.6193019 24.40799236 -28.4375 27.125 C-31.64488522 32.92313029 -31.86557844 37.9026292 -31.80078125 44.44140625 C-31.80127975 45.4160936 -31.80177826 46.39078094 -31.80229187 47.39500427 C-31.79996077 49.44654387 -31.7902895 51.49808685 -31.77368164 53.54956055 C-31.75004839 56.68108805 -31.75313349 59.81176503 -31.75976562 62.94335938 C-31.75418937 64.94271338 -31.74707982 66.94206383 -31.73828125 68.94140625 C-31.73919266 69.87279922 -31.74010406 70.8041922 -31.74104309 71.7638092 C-31.6816121 77.23733107 -31.48846482 82.25364925 -28.1875 86.875 C-22.62402717 90.84890916 -16.71508766 90.24373553 -10.25 89.8125 C-9.31905518 89.75908447 -8.38811035 89.70566895 -7.42895508 89.65063477 C-1.08777494 89.27358564 5.24741438 88.8201031 11.5625 88.125 C13.71876379 95.67192326 14.61155387 103.35556782 15.5625 111.125 C-3.92693466 115.74308889 -26.58855641 117.82445223 -44.8125 108.375 C-52.93990054 101.40865668 -57.03646103 94.73174379 -58.4375 84.125 C-58.5963915 80.10960943 -58.6014722 76.09630305 -58.60546875 72.078125 C-58.60879715 70.911745 -58.61212555 69.74536499 -58.61555481 68.54364014 C-58.62060914 66.07922763 -58.6229636 63.61480831 -58.62280273 61.15039062 C-58.62498415 57.40222738 -58.6431422 53.65436103 -58.66210938 49.90625 C-58.66504471 47.50520933 -58.66702857 45.10416728 -58.66796875 42.703125 C-58.67515427 41.5923761 -58.68233978 40.4816272 -58.68974304 39.33721924 C-58.65545923 27.51418416 -57.18593913 17.14458178 -48.6875 8.3046875 C-35.26636606 -2.82366939 -16.29130994 -1.75202417 0 0 Z " fill="#22418F" transform="translate(331.4375,130.875)"/>
<path d="M0 0 C1.13042725 0.11746582 1.13042725 0.11746582 2.28369141 0.23730469 C6.58295365 0.73880522 10.42209069 1.58933162 14.5 3.125 C13.98351265 10.91308563 13.05123466 18.47425042 11.5 26.125 C10.48164063 25.980625 9.46328125 25.83625 8.4140625 25.6875 C0.54258281 24.63158125 -7.2404973 23.91467715 -15.1875 23.875 C-16.29907471 23.86146484 -16.29907471 23.86146484 -17.43310547 23.84765625 C-21.80632216 23.87159176 -25.59158515 24.08582703 -29.5 26.125 C-32.15170247 31.64725403 -31.82316312 37.44591146 -31.8359375 43.4375 C-31.8425943 44.52458252 -31.8492511 45.61166504 -31.85610962 46.73168945 C-31.86621118 49.02455966 -31.87092741 51.31745912 -31.87060547 53.61035156 C-31.87498515 57.11312223 -31.9113507 60.61463896 -31.94921875 64.1171875 C-31.95508613 66.34895404 -31.95905605 68.58072654 -31.9609375 70.8125 C-31.97530853 71.85639893 -31.98967957 72.90029785 -32.00448608 73.97583008 C-31.96683741 79.97940708 -31.60828479 83.60959207 -27.5 88.125 C-21.81516575 90.67460531 -16.31854367 90.22105906 -10.25 89.8125 C-9.32356689 89.75908447 -8.39713379 89.70566895 -7.44262695 89.65063477 C-1.11791252 89.27271685 5.20123186 88.81830703 11.5 88.125 C12.0064814 90.83226366 12.505351 93.54057124 13 96.25 C13.14308594 97.01054687 13.28617187 97.77109375 13.43359375 98.5546875 C14.20312456 102.80542914 14.66644376 106.78359197 14.5 111.125 C4.5497298 113.684947 -5.0518013 114.44944431 -15.3125 114.5 C-16.44405518 114.51353516 -17.57561035 114.52707031 -18.74145508 114.54101562 C-30.79728413 114.4775778 -42.47398124 112.01761334 -51.3515625 103.30859375 C-58.60830105 94.46109232 -58.95947175 84.1942632 -58.93359375 73.19140625 C-58.9388356 71.87768539 -58.94407745 70.56396454 -58.94947815 69.21043396 C-58.95835421 66.44447129 -58.95604974 63.67879819 -58.94604492 60.9128418 C-58.93456038 57.3983689 -58.95478551 53.88490165 -58.98396206 50.37056065 C-59.00690054 46.97745931 -58.99984969 43.58458284 -58.99609375 40.19140625 C-59.00732773 38.9452504 -59.01856171 37.69909454 -59.03013611 36.41517639 C-58.94823066 26.04132206 -57.07632932 16.60284622 -49.66796875 8.91015625 C-35.51588176 -2.74300367 -17.20280883 -1.81524852 0 0 Z " fill="#22418F" transform="translate(196.5,130.875)"/>
<path d="M0 0 C8.58 0 17.16 0 26 0 C26 36.96 26 73.92 26 112 C17.42 112 8.84 112 0 112 C0 75.04 0 38.08 0 0 Z " fill="#22418F" transform="translate(229,132)"/>
<path d="M0 0 C3.63 0 7.26 0 11 0 C11.33 23.43 11.66 46.86 12 71 C20.91 75.62 29.82 80.24 39 85 C61.89745481 97.34784212 61.89745481 97.34784212 73 104 C72.31620454 107.95008059 71.21156817 110.63457018 69 114 C65.49052678 113.30255821 62.64263322 111.90943219 59.4765625 110.26171875 C58.38327637 109.69445068 57.28999023 109.12718262 56.16357422 108.54272461 C54.99584473 107.93050049 53.82811523 107.31827637 52.625 106.6875 C51.41297975 106.05531145 50.20090233 105.42323249 48.98876953 104.79125977 C39.51549382 99.84078672 30.10885755 94.77047772 20.7421875 89.62109375 C19.95166992 89.1916748 19.16115234 88.76225586 18.34667969 88.31982422 C16.7394384 87.4158764 15.15701604 86.46675008 13.59863281 85.48095703 C12.82616211 85.00384277 12.05369141 84.52672852 11.2578125 84.03515625 C10.58121582 83.59695557 9.90461914 83.15875488 9.20751953 82.70727539 C5.2011625 81.42366376 1.95591524 83.54904884 -1.67456055 85.26171875 C-2.56957275 85.73222656 -3.46458496 86.20273438 -4.38671875 86.6875 C-5.39831055 87.21649902 -6.40990234 87.74549805 -7.45214844 88.29052734 C-8.51981445 88.85465332 -9.58748047 89.4187793 -10.6875 90 C-12.34894043 90.87132568 -12.34894043 90.87132568 -14.04394531 91.76025391 C-17.36470927 93.50291353 -20.68239583 95.25133454 -24 97 C-25.80310805 97.94584144 -27.6064705 98.89119817 -29.41015625 99.8359375 C-38.22617581 104.45336766 -38.22617581 104.45336766 -46.98828125 109.171875 C-47.9014209 109.67001709 -47.9014209 109.67001709 -48.83300781 110.17822266 C-50.43398643 111.05464771 -52.03159848 111.93721495 -53.62890625 112.8203125 C-56 114 -56 114 -58 114 C-58.67408308 112.73308493 -59.33900497 111.46129251 -60 110.1875 C-60.37125 109.47980469 -60.7425 108.77210937 -61.125 108.04296875 C-62 106 -62 106 -62 103 C-61.03924561 102.50709473 -60.07849121 102.01418945 -59.08862305 101.50634766 C-37.38183322 90.38800024 -37.38183322 90.38800024 -15.75 79.125 C-15.03932373 78.75197754 -14.32864746 78.37895508 -13.59643555 77.99462891 C-11.7247671 77.00624815 -9.85638537 76.01685314 -8 75 C-6.18375122 74.4423999 -6.18375122 74.4423999 -4.33081055 73.87353516 C-2.38080179 72.87915981 -2.38080179 72.87915981 -1 71 C0.10480532 65.72406603 -0.04525328 60.44117009 -0.09765625 55.078125 C-0.08827124 53.49198357 -0.07581349 51.90585758 -0.06040955 50.31976318 C-0.02816409 46.15030361 -0.03763227 41.98194313 -0.05578613 37.81243896 C-0.06693892 33.55582621 -0.03864578 29.29949573 -0.01367188 25.04296875 C0.02949303 16.69508329 0.02859278 8.34794661 0 0 Z " fill="#22418F" transform="translate(67,2)"/>
<path d="M0 0 C1.11850342 0.62511475 2.23700684 1.25022949 3.3894043 1.89428711 C4.57477576 2.5635176 5.76007732 3.23287193 6.9453125 3.90234375 C8.1570546 4.58191353 9.36905131 5.26102948 10.58129883 5.93969727 C12.97565483 7.28134928 15.36832832 8.62591863 17.75927734 9.97363281 C20.63844828 11.59643053 23.51969863 13.21541649 26.40234375 14.83203125 C29.96142467 16.82919412 33.51722014 18.8320473 37.0703125 20.83984375 C37.0703125 25.88234803 35.66781618 27.61890028 33.0703125 31.83984375 C29.50263272 30.48046031 26.17860365 28.90297438 22.82421875 27.08203125 C21.82825684 26.54199463 20.83229492 26.00195801 19.80615234 25.44555664 C18.7589502 24.87442139 17.71174805 24.30328613 16.6328125 23.71484375 C15.5598291 23.13532959 14.4868457 22.55581543 13.38134766 21.95874023 C8.72905007 19.43538287 4.10035624 16.90323951 -0.41015625 14.1328125 C-1.04058838 13.74947754 -1.67102051 13.36614258 -2.32055664 12.97119141 C-3.93291651 11.97739843 -5.52968046 10.95842332 -7.125 9.9375 C-9.85791949 8.5901015 -9.85791949 8.5901015 -12.6171875 9.296875 C-17.42854894 11.53801624 -22.12079728 13.969533 -26.8046875 16.46484375 C-28.85489272 17.54666528 -30.90567778 18.62738861 -32.95703125 19.70703125 C-33.96491699 20.23780273 -34.97280273 20.76857422 -36.01123047 21.31542969 C-42.26984569 24.58452735 -48.59796867 27.71533809 -54.9296875 30.83984375 C-55.79627365 29.57744663 -56.64760809 28.30456874 -57.4921875 27.02734375 C-58.20568359 25.96580078 -58.20568359 25.96580078 -58.93359375 24.8828125 C-59.9296875 22.83984375 -59.9296875 22.83984375 -58.9296875 19.83984375 C-56.54736328 18.28100586 -56.54736328 18.28100586 -53.375 16.6171875 C-52.2111377 16.00029053 -51.04727539 15.38339355 -49.84814453 14.74780273 C-48.58398115 14.09036298 -47.31948883 13.43355538 -46.0546875 12.77734375 C-44.77555095 12.10747809 -43.49674344 11.43698373 -42.21826172 10.76586914 C-40.29180425 9.75492544 -38.36491316 8.74490782 -36.43582153 7.73899841 C-32.60664168 5.73864066 -28.81840483 3.68063353 -25.0546875 1.55859375 C-24.19858887 1.08301025 -23.34249023 0.60742676 -22.46044922 0.11743164 C-20.89634889 -0.75382336 -19.34009107 -1.63936272 -17.79345703 -2.54125977 C-17.09849121 -2.92209717 -16.40352539 -3.30293457 -15.6875 -3.6953125 C-15.1011377 -4.02926025 -14.51477539 -4.36320801 -13.91064453 -4.70727539 C-9.03464346 -5.82201313 -4.11430645 -2.31159846 0 0 Z " fill="#13A14A" transform="translate(83.9296875,99.16015625)"/>
<path d="M0 0 C3.63 0 7.26 0 11 0 C11 16.5 11 33 11 50 C12.98 50.66 14.96 51.32 17 52 C18.3433099 52.59429787 19.67388066 53.2187626 20.98583984 53.87939453 C21.70613373 54.239617 22.42642761 54.59983948 23.16854858 54.97097778 C23.92503693 55.35438324 24.68152527 55.7377887 25.4609375 56.1328125 C26.25150543 56.52951141 27.04207336 56.92621033 27.8565979 57.33493042 C30.36464599 58.59452211 32.86984406 59.85966763 35.375 61.125 C37.08184567 61.98344201 38.78887503 62.84151887 40.49609375 63.69921875 C44.66620079 65.79525835 48.83376203 67.89628118 53 70 C51.74194623 74.50802601 50.09592835 77.4912812 47 81 C40.46581214 77.74554379 33.9331694 74.48800233 27.40161133 71.22827148 C25.17768575 70.11882905 22.95340236 69.01010358 20.72875977 67.90209961 C17.53828964 66.31290307 14.34909904 64.72116493 11.16015625 63.12890625 C10.15912369 62.63097061 9.15809113 62.13303497 8.12672424 61.62001038 C7.20584518 61.15960861 6.28496613 60.69920685 5.33618164 60.22485352 C4.52121719 59.8184816 3.70625275 59.41210968 2.86659241 58.99342346 C1 58 1 58 0 57 C-0.09370624 55.22008076 -0.11744271 53.43643261 -0.11352539 51.65405273 C-0.11344986 50.5129454 -0.11337433 49.37183807 -0.11329651 48.19615173 C-0.10813522 46.9545076 -0.10297394 45.71286346 -0.09765625 44.43359375 C-0.0962413 43.16983414 -0.09482635 41.90607452 -0.09336853 40.60401917 C-0.08870582 37.23875111 -0.0797148 33.8735501 -0.06866455 30.50830078 C-0.05844846 27.0765033 -0.05387049 23.64469891 -0.04882812 20.21289062 C-0.0377738 13.47523936 -0.02049637 6.73762889 0 0 Z " fill="#13A14A" transform="translate(89,11)"/>
<path d="M0 0 C3.63 0 7.26 0 11 0 C11 18.81 11 37.62 11 57 C-0.3590829 62.97846468 -11.695463 68.91991204 -23.1875 74.625 C-24.44996736 75.25371037 -25.71233714 75.88261672 -26.97460938 76.51171875 C-29.98213136 78.00971821 -32.99058144 79.50581543 -36 81 C-41 74.43835616 -41 74.43835616 -41 70 C-35.64442644 67.30986268 -30.28754986 64.62234464 -24.92944336 61.93725586 C-23.10649044 61.02326352 -21.28389701 60.10855381 -19.46166992 59.19311523 C-16.84387668 57.87816056 -14.22480561 56.56578285 -11.60546875 55.25390625 C-10.38188911 54.63824547 -10.38188911 54.63824547 -9.1335907 54.01014709 C-8.37302872 53.62982834 -7.61246674 53.24950958 -6.82885742 52.85766602 C-6.16045334 52.52235367 -5.49204926 52.18704132 -4.8033905 51.84156799 C-3 51 -3 51 0 50 C0 33.5 0 17 0 0 Z " fill="#12A14A" transform="translate(45,11)"/>
<path d="M0 0 C0.70318359 0.39823975 1.40636719 0.79647949 2.13085938 1.20678711 C7.57656343 4.30212829 12.97187037 7.47629674 18.3125 10.75 C17.15664715 14.66211733 15.95715038 17.6245041 13.3125 20.75 C9.86333282 20.13190457 7.77954321 18.80361497 4.99609375 16.7109375 C-3.91562958 10.00292394 -3.91562958 10.00292394 -14.43261719 8.03710938 C-19.67762586 9.72431496 -24.19379866 12.49635291 -28.74951172 15.54785156 C-31.265051 17.10825915 -33.83914242 17.98261365 -36.6875 18.75 C-38.3375 15.45 -39.9875 12.15 -41.6875 8.75 C-36.98387542 6.26297058 -32.27748196 3.78183692 -27.5625 1.31640625 C-24.81199739 -0.12340838 -22.08675504 -1.58508533 -19.375 -3.09765625 C-18.529375 -3.56042969 -17.68375 -4.02320312 -16.8125 -4.5 C-16.11382812 -4.89703125 -15.41515625 -5.2940625 -14.6953125 -5.703125 C-9.81477507 -7.03245426 -4.16406534 -2.37503396 0 0 Z " fill="#61BB46" transform="translate(84.6875,123.25)"/>
<path d="M0 0 C3.63 0 7.26 0 11 0 C11.33 7.92 11.66 15.84 12 24 C18.6 26.97 25.2 29.94 32 33 C31.1302743 37.34862851 30.0525056 40.16270693 28 44 C21.63855262 42.01062264 15.57125847 39.61912841 9.5 36.875 C8.28570312 36.33552734 8.28570312 36.33552734 7.046875 35.78515625 C1.1381079 33.1381079 1.1381079 33.1381079 0 32 C-0.0883967 29.6243148 -0.11530305 27.27791326 -0.09765625 24.90234375 C-0.0962413 24.19348526 -0.09482635 23.48462677 -0.09336853 22.75428772 C-0.08775443 20.48198288 -0.07519963 18.20977525 -0.0625 15.9375 C-0.05748681 14.40039204 -0.05292359 12.86328255 -0.04882812 11.32617188 C-0.03778042 7.55074358 -0.02050641 3.77538829 0 0 Z " fill="#62BB46" transform="translate(110,25)"/>
<path d="M0 0 C3.63 0 7.26 0 11 0 C11 10.56 11 21.12 11 32 C-2.66153846 38.83076923 -2.66153846 38.83076923 -8.625 41.375 C-9.79289063 41.87773438 -10.96078125 42.38046875 -12.1640625 42.8984375 C-15 44 -15 44 -17 44 C-17.67119549 42.5437455 -18.33681807 41.08492133 -19 39.625 C-19.37125 38.81289063 -19.7425 38.00078125 -20.125 37.1640625 C-21 35 -21 35 -21 33 C-18.06657102 31.65757579 -15.12763748 30.32765933 -12.1875 29 C-11.35412109 28.6184375 -10.52074219 28.236875 -9.66210938 27.84375 C-8.85966797 27.4828125 -8.05722656 27.121875 -7.23046875 26.75 C-6.49207764 26.41484375 -5.75368652 26.0796875 -4.99291992 25.734375 C-3 25 -3 25 0 25 C0 16.75 0 8.5 0 0 Z " fill="#62BB46" transform="translate(24,25)"/>
<path d="M0 0 C1.98 0 3.96 0 6 0 C8.64 5.28 11.28 10.56 14 16 C14.33 10.72 14.66 5.44 15 0 C16.32 0 17.64 0 19 0 C19 8.25 19 16.5 19 25 C17.02 25 15.04 25 13 25 C10.36 19.72 7.72 14.44 5 9 C4.67 14.28 4.34 19.56 4 25 C2.68 25 1.36 25 0 25 C0 16.75 0 8.5 0 0 Z " fill="#818385" transform="translate(144,259)"/>
<path d="M0 0 C1.76923828 0.04060547 1.76923828 0.04060547 3.57421875 0.08203125 C4.47785156 0.11683594 5.38148438 0.15164063 6.3125 0.1875 C5.70138422 10.04964424 5.70138422 10.04964424 2.3125 13.1875 C0.125 14.4375 0.125 14.4375 -1.6875 15.1875 C0.6225 15.8475 2.9325 16.5075 5.3125 17.1875 C5.4375 20.5625 5.4375 20.5625 5.3125 24.1875 C3.3125 26.1875 3.3125 26.1875 0.4921875 26.3828125 C-0.59835937 26.35960937 -1.68890625 26.33640625 -2.8125 26.3125 C-3.90820312 26.29445313 -5.00390625 26.27640625 -6.1328125 26.2578125 C-6.97585938 26.23460937 -7.81890625 26.21140625 -8.6875 26.1875 C-8.6875 24.8675 -8.6875 23.5475 -8.6875 22.1875 C-5.3875 22.1875 -2.0875 22.1875 1.3125 22.1875 C0.9825 21.5275 0.6525 20.8675 0.3125 20.1875 C-1.80596285 19.50020746 -1.80596285 19.50020746 -4.25 19.0625 C-5.07628906 18.89492188 -5.90257812 18.72734375 -6.75390625 18.5546875 C-7.39199219 18.43351562 -8.03007812 18.31234375 -8.6875 18.1875 C-8.666875 17.23875 -8.64625 16.29 -8.625 15.3125 C-8.46198174 12.28083717 -8.46198174 12.28083717 -9.6875 10.1875 C-10.14475577 3.90023319 -10.14475577 3.90023319 -8.58984375 1.4765625 C-5.74647952 -0.45015248 -3.38654785 -0.10059053 0 0 Z M-5.6875 4.1875 C-5.730221 5.85361905 -5.72813832 7.52132885 -5.6875 9.1875 C-4.62104885 10.48383621 -4.62104885 10.48383621 -2.125 10.25 C-1.320625 10.229375 -0.51625 10.20875 0.3125 10.1875 C0.99208603 7.79030568 0.99208603 7.79030568 1.3125 5.1875 C0.6525 4.5275 -0.0075 3.8675 -0.6875 3.1875 C-3.6129644 2.9638932 -3.6129644 2.9638932 -5.6875 4.1875 Z " fill="#818385" transform="translate(277.6875,264.8125)"/>
<path d="M0 0 C0 1.65 0 3.3 0 5 C1.65 5 3.3 5 5 5 C5 6.32 5 7.64 5 9 C3.35 9 1.7 9 0 9 C0 12.63 0 16.26 0 20 C1.65 20 3.3 20 5 20 C5 21.32 5 22.64 5 24 C1.625 24.125 1.625 24.125 -2 24 C-4 22 -4 22 -4.1953125 18.9609375 C-4.17210937 17.77757812 -4.14890625 16.59421875 -4.125 15.375 C-4.10695312 14.18648438 -4.08890625 12.99796875 -4.0703125 11.7734375 C-4.04710937 10.85820312 -4.02390625 9.94296875 -4 9 C-6.31 9.66 -8.62 10.32 -11 11 C-11.33 15.29 -11.66 19.58 -12 24 C-13.32 24 -14.64 24 -16 24 C-16 17.73 -16 11.46 -16 5 C-14.68 5.33 -13.36 5.66 -12 6 C-10.32457024 5.71395102 -8.65614657 5.38218767 -7 5 C-6.01 5 -5.02 5 -4 5 C-4 3.68 -4 2.36 -4 1 C-1 0 -1 0 0 0 Z " fill="#818385" transform="translate(203,260)"/>
<path d="M0 0 C2 1 2 1 3 3 C3.23059307 5.71885319 3.13475823 8.25991592 3 11 C-0.3 11 -3.6 11 -7 11 C-7 12.32 -7 13.64 -7 15 C-4.03 15 -1.06 15 2 15 C2.33 15.99 2.66 16.98 3 18 C0.67313547 19.16343227 -0.84721413 19.19895988 -3.4375 19.25 C-4.21996094 19.27578125 -5.00242187 19.3015625 -5.80859375 19.328125 C-8 19 -8 19 -9.76171875 17.890625 C-11.59136771 15.09709158 -11.39733858 12.80610934 -11.375 9.5 C-11.38660156 7.78296875 -11.38660156 7.78296875 -11.3984375 6.03125 C-11 3 -11 3 -9.7265625 1.1171875 C-6.64834203 -0.87460221 -3.52585942 -0.51418783 0 0 Z M-7 4 C-7 5.32 -7 6.64 -7 8 C-5.02 8 -3.04 8 -1 8 C-1 6.68 -1 5.36 -1 4 C-4.04913228 2.98888907 -4.04913228 2.98888907 -7 4 Z " fill="#818385" transform="translate(344,265)"/>
<path d="M0 0 C1.32 0 2.64 0 4 0 C4 4.95 4 9.9 4 15 C5.98 14.34 7.96 13.68 10 13 C10.33 8.71 10.66 4.42 11 0 C12.32 0 13.64 0 15 0 C15 6.27 15 12.54 15 19 C5.0390625 19.1953125 5.0390625 19.1953125 2 19 C0 17 0 17 -0.1953125 13.0859375 C-0.18200376 11.51550649 -0.15813602 9.94513779 -0.125 8.375 C-0.11597656 7.57320313 -0.10695312 6.77140625 -0.09765625 5.9453125 C-0.07406223 3.96341477 -0.03819065 1.98167019 0 0 Z " fill="#818385" transform="translate(211,265)"/>
<path d="M0 0 C9.9609375 -0.1953125 9.9609375 -0.1953125 13 0 C15 2 15 2 15.1953125 5.9140625 C15.18200376 7.48449351 15.15813602 9.05486221 15.125 10.625 C15.11597656 11.42679687 15.10695313 12.22859375 15.09765625 13.0546875 C15.07406223 15.03658523 15.03819065 17.01832981 15 19 C13.68 19 12.36 19 11 19 C11 14.05 11 9.1 11 4 C8.69 4.33 6.38 4.66 4 5 C4 9.62 4 14.24 4 19 C2.68 19 1.36 19 0 19 C0 12.73 0 6.46 0 0 Z " fill="#818385" transform="translate(250,265)"/>
<path d="M0 0 C1.32 0 2.64 0 4 0 C4.33 4.62 4.66 9.24 5 14 C6.98 14 8.96 14 11 14 C11 9.38 11 4.76 11 0 C12.32 0 13.64 0 15 0 C15 6.27 15 12.54 15 19 C10.71 19 6.42 19 2 19 C-0.12401038 14.75197923 -0.2376107 11.83238937 -0.125 7.25 C-0.11597656 6.55261719 -0.10695312 5.85523438 -0.09765625 5.13671875 C-0.07419888 3.42433042 -0.03833104 1.71211996 0 0 Z " fill="#818385" transform="translate(167,265)"/>
<path d="M0 0 C0.33 1.32 0.66 2.64 1 4 C-0.65 4 -2.3 4 -4 4 C-4 5.32 -4 6.64 -4 8 C-2.35 8 -0.7 8 1 8 C0.67 9.32 0.34 10.64 0 12 C-1.32 12 -2.64 12 -4 12 C-4 16.95 -4 21.9 -4 27 C-5.32 27 -6.64 27 -8 27 C-8 22.05 -8 17.1 -8 12 C-9.32 12 -10.64 12 -12 12 C-12 10.68 -12 9.36 -12 8 C-10.68 8 -9.36 8 -8 8 C-8.061875 7.05125 -8.12375 6.1025 -8.1875 5.125 C-8.125625 4.09375 -8.06375 3.0625 -8 2 C-4.77208445 -0.1519437 -3.71599191 -0.20086443 0 0 Z " fill="#818385" transform="translate(331,257)"/>
<path d="M0 0 C1.32 0 2.64 0 4 0 C4 6.93 4 13.86 4 21 C7.3 21 10.6 21 14 21 C14 22.32 14 23.64 14 25 C9.38 25 4.76 25 0 25 C0 16.75 0 8.5 0 0 Z " fill="#818385" transform="translate(295,259)"/>
<path d="M0 0 C2.475 0.495 2.475 0.495 5 1 C7.23167185 0.63143136 7.23167185 0.63143136 9 0 C8.6875 2.375 8.6875 2.375 8 5 C7.01 5.66 6.02 6.32 5 7 C4.41518879 9.88595946 4.41518879 9.88595946 4.3125 13.125 C4.24675781 14.22070312 4.18101562 15.31640625 4.11328125 16.4453125 C4.07589844 17.28835938 4.03851563 18.13140625 4 19 C2.68 19 1.36 19 0 19 C0 12.73 0 6.46 0 0 Z " fill="#818385" transform="translate(230,265)"/>
<path d="M0 0 C1.32 0 2.64 0 4 0 C4 6.27 4 12.54 4 19 C2.68 19 1.36 19 0 19 C0 12.73 0 6.46 0 0 Z " fill="#818385" transform="translate(313,265)"/>
<path d="M0 0 C1.32 0 2.64 0 4 0 C4 6.27 4 12.54 4 19 C2.68 19 1.36 19 0 19 C0 12.73 0 6.46 0 0 Z " fill="#818385" transform="translate(241,265)"/>
<path d="M0 0 C1.32 0 2.64 0 4 0 C4 1.65 4 3.3 4 5 C2.68 5 1.36 5 0 5 C0 3.35 0 1.7 0 0 Z " fill="#818384" transform="translate(313,258)"/>
<path d="M0 0 C1.32 0 2.64 0 4 0 C4 1.65 4 3.3 4 5 C2.68 5 1.36 5 0 5 C0 3.35 0 1.7 0 0 Z " fill="#818384" transform="translate(241,258)"/>
</svg>
